<?xml version="1.0" encoding="UTF-8"?>
<svg id="Layer_2" data-name="Layer 2" xmlns="http://www.w3.org/2000/svg" viewBox="0 0 254.12 374.9">
  <defs>
    <style>
      .cls-1 {
        fill: #EFF5FB;
        opacity: .2;
      }
    </style>
  </defs>
  <g id="Layer_1-2" data-name="Layer 1">
    <path class="cls-1" d="m43.75,87.93c-2.49,24.43-6.27,48.83-12.67,72.56-.43,1.59,2.19,2.11,2.62.46,6.4-23.73,10.19-48.13,12.67-72.56.16-1.65-2.46-2.16-2.62-.46Z"/>
    <path class="cls-1" d="m46.39,88.36c1.08-10.32,2.62-22.32,8.95-30.97,2.57-3.51,6.13-5.7,10.05-7.49,5.81-2.68,12.05-4.3,18.32-5.43.68-.14,1.27-.65,1.16-1.43-1.03-6.7-3.22-13.16-5.62-19.49-2.27-5.97-5.62-11.51-8.81-17.03v1.59c1.24-1.51,2.57-3.32,4.19-4.46,1.62-1.14,4-.97,5.81-.89l-1.41-.86c3.05,5.54,5.3,11.38,6.19,17.62,1.08,7.59,1.43,15.3,1.76,22.94.03.7.81,1.27,1.49,1.19,6.22-.73,12.27-2.27,18.57-1.78,5.14.38,10.13,1.81,14.7,4.19,10.16,5.32,17.3,14.86,22.81,24.67,5.97,10.62,10.73,21.94,15.16,33.3,2.54,6.49,4.73,13.03,7.97,19.22,2.92,5.54,6.24,10.86,9.92,15.94,8.03,11.08,17.65,20.97,28.05,29.84,4.76,4.05,9.59,7.95,13.92,12.51,4.32,4.57,7.87,9,11.19,13.97,6.92,10.27,12.03,21.65,15.57,33.51,3.78,12.67,5.97,25.89,4.97,39.13-1.86,24.78-15.08,47.1-33.54,63.29-18.46,16.19-40.59,25.76-63.62,32.05-6.97,1.92-14.03,3.54-21.16,4.81s-14.21,2.38-21.35,3.19c-12.46,1.38-25.16,1.38-37.48-1.22-10.46-2.19-20.49-6.38-29.11-12.7-10.08-7.4-18.67-17.4-25.48-27.86C4.53,306.59-.2,277.65,4.02,250.62c1.81-11.57,5.73-22.73,9.84-33.65,5.05-13.43,10.51-26.7,15.05-40.35,1.7-5.08,3.3-10.19,4.7-15.38.43-1.57-2-2.73-2.46-1.11-3.38,12.32-7.7,24.4-12.24,36.35-5,13.11-10.46,26.05-14.35,39.57-3.68,12.76-5.05,25.94-4.41,39.19.65,13.24,3.24,27.24,8.65,39.83,5.41,12.59,12.84,23.24,21.92,32.86,7.84,8.3,16.57,15.27,27.11,19.84,24.08,10.43,50.75,7.54,75.86,3.05,25.11-4.49,51.16-12.89,72.8-27.4,19.92-13.32,36.73-32.73,43.84-55.91,7.73-25.13,2.89-52.59-7.76-76.16-5.05-11.13-11.76-21.51-20.08-30.48-4.32-4.65-9.05-8.73-13.92-12.78-5.68-4.76-11.13-9.78-16.19-15.19-9.16-9.73-17.21-20.59-23.24-32.54-3.32-6.59-5.54-13.7-8.27-20.57-2.43-6.11-5-12.16-7.81-18.13-4.87-10.38-10.35-20.76-18.43-29.02-7.51-7.7-17.3-12.81-28.13-13.4-6.21-.32-12.16,1.08-18.3,1.81l1.49,1.19c-.27-6.05-.57-12.11-1.19-18.13-.35-3.54-.76-7.13-1.68-10.57-.62-2.3-1.51-4.54-2.46-6.7-.59-1.41-1.22-2.78-1.92-4.16-.49-.92-.84-2.19-1.95-2.51-1.35-.38-3.35.03-4.7.3-.84.16-1.65.32-2.35.78-1.97,1.3-3.57,3.41-5.05,5.19-.41.49-.3,1.08,0,1.59,3.05,5.32,6.27,10.65,8.46,16.4,2.32,6.13,4.46,12.35,5.46,18.84l1.16-1.43c-5.24.97-10.49,2.22-15.49,4.11-3.78,1.43-7.73,3.19-10.89,5.76-5.62,4.54-8.38,11.84-10.22,18.59-1.54,5.76-2.43,11.67-3.05,17.59-.16,1.65,2.46,2.16,2.62.46l-.05.03Z"/>
    <path class="cls-1" d="m83.72,44.48c1.59-.3,3.16-.54,4.76-.78.35-.05.65-.19.89-.46.19-.24.32-.65.27-.95-.11-.68-.76-1.32-1.49-1.19-1.59.24-3.19.49-4.76.78-.35.05-.65.16-.89.46-.19.24-.32.65-.27.95.11.65.76,1.35,1.49,1.19Z"/>
    <path class="cls-1" d="m91.09,43.42c11.76-.78,22.51,3.54,30.92,11.7,8.4,8.16,14.51,19.92,19.59,30.94,6.3,13.67,10.94,28,17,41.78,6.35,14.54,13.86,28.54,22.19,42.05,4.35,7.05,9.08,13.84,13.35,20.94,4.05,6.7,7.73,13.62,11.05,20.73,6.49,13.89,12.08,28.78,14.86,43.89,2.78,15.11,1.59,30.84-3.08,45.54-3.87,12.13-9.49,24-18.08,33.51-16.35,18.11-40.51,27.3-63.7,32.78-3.76.89-7.51,1.68-11.3,2.35-1.7.3-1.3,2.92.33,2.62,25.19-4.59,51.78-12.84,71.1-30.4,8.62-7.84,14.84-17.21,19.57-27.81,6.49-14.57,10-30.43,9.24-46.43-.76-16-5.7-30.94-11.43-45.32-5.73-14.38-13.59-29.08-22.46-42.46-9.35-14.11-17.86-28.75-25.13-44.05-6.84-14.4-11.84-29.51-18.13-44.13-9.16-21.21-21.86-47.54-47.67-50.67-2.81-.35-5.68-.38-8.49-.19-1.73.11-1.32,2.73.32,2.62h-.05Z"/>
    <path class="cls-1" d="m157.31,255.89c3.32,13.24,3.57,27.27-2.08,39.94-4.97,11.22-13.86,20.73-24.65,26.57-11.46,6.24-25.46,8.7-38.4,7.24-13.57-1.51-26.16-7.81-36.19-16.97-19.13-17.49-25.59-47-15.67-70.94,4.97-12,13.59-22.7,24.48-29.81,10.89-7.11,23.78-10.41,36.59-10.38,12.81.03,24.35,4.38,33.57,13.03,9.21,8.65,15.19,19.62,19.3,31.24,1.16,3.32,2.16,6.68,3.05,10.08.4,1.59,3.05,1.46,2.62-.22-6.32-24.65-21.11-50.78-48.24-55.81-13.24-2.46-27.86-.3-40.08,5.27-12.22,5.57-22.05,14.78-28.92,26.05-7.49,12.24-10.67,26.38-9.24,40.67,1.3,13.05,6,25.73,14.35,35.92,8.35,10.19,20.81,18.67,33.97,22.48,13.16,3.81,28.24,2.97,41.38-1.65,12.03-4.24,22.32-12.21,29.51-22.73,7.89-11.54,10.78-25.3,9.3-39.1-.41-3.73-1.11-7.43-2.03-11.05-.4-1.59-3.05-1.46-2.62.22v-.05Z"/>
    <path class="cls-1" d="m143.98,244.76c.51,1.38.95,2.78,1.32,4.19.08.32.43.62.73.76.3.14.7.16,1,.05.3-.11.62-.35.73-.68.11-.32.11-.65,0-1-.38-1.4-.84-2.81-1.32-4.19-.24-.65-1.08-1.08-1.73-.81-.65.27-1,1-.73,1.68Z"/>
    <path class="cls-1" d="m142.14,231.33c.43.7.87,1.4,1.27,2.13.11.16.24.27.4.35.13.11.3.16.49.19.3.05.7,0,.97-.22.27-.22.49-.51.51-.86v-.32c-.03-.24-.11-.43-.24-.62-.4-.73-.84-1.43-1.27-2.13-.11-.16-.24-.27-.41-.35-.14-.11-.3-.16-.49-.19-.3-.05-.7,0-.97.22-.27.22-.49.51-.51.87v.32c.03.24.11.43.24.62Z"/>
    <path class="cls-1" d="m146.77,255.38c1.4,7.65,1.97,15.54,1.65,23.32-.3,7.05-1.11,14.62-4.35,20.97-.76,1.49,1.68,2.62,2.46,1.11,3.35-6.54,4.22-14.38,4.54-21.62.35-8-.19-16.11-1.65-24-.3-1.62-2.95-1.49-2.62.22h-.03Z"/>
    <path class="cls-1" d="m145.87,237.95c4.46,9.05,6.84,18.89,7.94,28.89.84,7.62.32,15.38-.51,22.97-.19,1.65,2.43,2.16,2.62.46.89-7.81,1.38-15.81.51-23.65-1.13-10.19-3.57-20.3-8.11-29.54-.73-1.51-3.24-.7-2.46.86Z"/>
    <path class="cls-1" d="m141.01,304.08c-1.19,1.4-2.35,2.57-3.65,3.68-1.49,1.24-3.05,2.35-4.7,3.38-.59.38-.68,1.3-.27,1.84.46.57,1.22.73,1.87.35,3.3-2.05,6.35-4.54,8.86-7.51,1.08-1.27-1.03-2.97-2.11-1.7v-.03Z"/>
    <path class="cls-1" d="m132.79,220.08c.6.49,1.16,1,1.73,1.51.3.3.59.57.86.87.19.19-.05-.05.05.05.08.08.13.16.22.24.16.16.3.32.43.49,1.3,1.43,2.49,2.97,3.62,4.54.4.57,1.3.78,1.86.35.57-.43.7-1.24.27-1.84-2.16-3-4.57-5.92-7.43-8.24-.54-.43-1.43-.43-1.87.16-.43.6-.32,1.4.24,1.86Z"/>
  </g>
</svg>
