<?xml version="1.0" encoding="UTF-8"?>
<svg id="Layer_2" data-name="Layer 2" xmlns="http://www.w3.org/2000/svg" viewBox="0 0 241.15 374.62">
  <defs>
    <style>
      .cls-1 {
        fill: #1f4328;
      }
    </style>
  </defs>
  <g id="Layer_1-2" data-name="Layer 1">
    <path class="cls-1" d="m178.8,57.64c-.31-9.28,1.69-18.33,4.17-27.24.19-.69-.06-1.25-.57-1.72-3.67-3.48-7.37-6.93-11.13-10.34-.72-.66-2.32-.47-2.32.72,0,5.42-.25,10.88-.69,16.27-.44,5.39-1.97,11.09-3.64,16.45-.31.97.38,1.79,1.29,2.07,3.79,1.19,7.43,2.76,10.91,4.73l-1-1.6c-.09,5.45.31,11.25,2.88,16.17,2.44,4.64,6.74,7.84,11.41,10.03,10.81,4.98,22.82,6.33,34.6,6.74.66,0,1.13-.5,1.22-1.1,1.44-8.84,1.69-17.86.25-26.73-1.16-6.93-3.13-13.98-7.18-19.81-3.45-4.95-8.27-8.84-13.63-11.53-2.98-1.5-6.11-2.63-9.34-3.51-1.69-.47-3.39-.88-5.11-1.19-1.72-.31-4.23-.22-5.55-1.19-1.82-1.35-3.45-3.07-5.17-4.54-1.72-1.47-3.42-2.91-5.11-4.39-2.29-1.97-4.45-4.39-6.99-6.05-1.63-1.07-3.35,1-1.69,2.07,2.07,1.35,3.79,3.26,5.64,4.89,2.85,2.51,5.77,4.92,8.62,7.43,1.22,1.07,2.41,2.48,3.73,3.35,1.41.94,3.98.78,5.67,1.1,3.38.63,6.77,1.47,10,2.7,5.55,2.1,10.78,5.27,14.67,9.81,4.39,5.14,6.58,11.44,7.93,17.96,2.01,9.56,1.82,19.37.28,28.96l1.22-1.1c-10.69-.38-21.28-1.6-31.28-5.61-4.42-1.79-8.87-4.39-11.31-8.65-2.57-4.54-2.95-10.06-2.85-15.17,0-.72-.38-1.25-1-1.6-3.7-2.1-7.62-3.73-11.66-4.98l1.29,2.07c1.69-5.45,3.26-11.13,3.76-16.83.5-5.7.69-11.09.72-16.58l-2.32.72c3.76,3.42,7.46,6.86,11.13,10.34l-.56-1.72c-2.54,9.12-4.61,18.43-4.29,27.93.06,1.66,3.01,2.54,2.95.66l.06.03Z"/>
    <path class="cls-1" d="m149.09,58.58c2.13.78,4.26,1.47,6.46,2.04,1.29.31,2.57.88,3.57-.25,1.88-2.04,2.04-6.14,2.41-8.68.12-.75-.63-1.63-1.38-1.72-7.71-1.03-15.61-.81-23.07,1.69-4.54,1.54-8.37,4.04-11.78,7.4-9.97,9.75-15.7,23.29-21.19,35.82-5.48,12.54-10.97,24.95-17.9,36.61-6.08,10.25-14.32,19.18-22.41,27.86-10.84,11.63-22.91,22.03-33.54,33.88-7.21,8.05-13.95,16.61-18.3,26.58-5.48,12.57-8.37,26.26-10.44,39.77-1.13,7.4-1.91,14.7-1.35,22.16.56,7.46,2.13,14.17,4.64,20.87,4.76,12.72,12.82,24.51,22.72,33.85,8.65,8.18,18.93,14.51,29.71,19.52,13.26,6.14,27.33,10.41,41.59,13.54,15.08,3.32,30.65,5.33,46.1,5.08,12.41-.22,24.98-2.01,36.54-6.61s22.35-12.41,31.28-21.25c8.93-8.84,16.55-20.09,20.97-32.28,2.57-7.11,4.2-14.6,5.49-22.06,1.28-7.46,2.04-15.17,1.91-22.79-.22-12.41-3.23-24.23-7.49-35.82-2.54-6.86-5.42-13.6-8.52-20.25-3.29-7.02-7.08-13.85-10.19-20.94-5.83-13.32-10.25-27.49-12.82-41.81-2.79-15.58-3.32-31.25-4.29-46.98-.41-6.89-1.07-13.76-2.32-20.56-.31-1.69-3.26-1.88-2.91.06,2.69,14.86,2.41,29.99,3.7,44.97,1.16,13.73,3.26,27.3,7.18,40.52,2.16,7.27,4.58,14.48,7.46,21.47,2.88,6.99,6.21,13.01,9.34,19.49,5.99,12.38,11.6,25.17,15.04,38.52,3.35,12.91,3.51,26.11,1.63,39.27-1.97,13.85-5.49,27.74-12.76,39.8-12.79,21.15-34.76,37.45-59.08,42.28-13.26,2.63-26.99,2.57-40.37,1.19-15.61-1.57-31.12-4.83-46.07-9.56-23.6-7.46-46.01-19.46-60.65-39.99-8.46-11.88-14.01-25.67-14.95-40.27-.47-7.49.47-14.86,1.66-22.25,1.19-7.4,2.6-14.54,4.54-21.69,2.88-10.53,6.86-20.53,13.29-29.43,7.68-10.62,16.96-20.09,26.36-29.18,5.95-5.77,11.94-11.41,17.58-17.49,4.61-4.98,9.15-10.03,13.41-15.33,6.55-8.09,11.6-16.89,16.23-26.2,3.23-6.46,6.24-13.01,9.15-19.59,3.29-7.46,6.39-14.98,10.34-22.13,4.92-8.9,11.47-19.27,21.5-23,7.3-2.7,15.11-3.13,22.79-2.1l-1.38-1.72c-.25,1.79-.53,3.6-1.03,5.36-.16.6-.38,1.72-.94,2.07l1.07-.16c-2.6-.56-5.11-1.32-7.62-2.23-1.88-.69-2.76,1.88-.97,2.54l.03.09Z"/>
    <path class="cls-1" d="m164.79,4.24c-2.35,1-4.8.16-7.02-.81-.94-.41-2.16.13-1.94,1.29,1.22,6.61,3.29,13.04,3.85,19.75.75,8.56.94,17.8-1,26.23-.38,1.63,2.41,3.1,2.79,1.35,1.94-8.56,1.85-17.71,1.19-26.42-.53-7.15-2.66-13.95-3.98-20.97l-1.94,1.28c2.85,1.25,6.21,2.35,9.28,1.07,1.75-.75.31-3.42-1.25-2.76h.03Z"/>
    <path class="cls-1" d="m164.64,51.78c-1.13,2.76-1.82,5.74-2.51,8.62-.19.85.28,1.97,1.29,2.07,2.76.31,5.52.34,8.27-.19.78-.16,1.03-1.16.72-1.79-.38-.75-1.13-1.13-1.97-.97-.13,0-.25.06-.41.06-.31.06.12,0-.19,0s-.56.06-.85.09c-.6.06-1.16.09-1.76.09-1.19,0-2.57-.03-3.6-.16l1.29,2.07c.69-2.88,1.38-5.86,2.51-8.62.66-1.57-2.1-3.04-2.79-1.35v.06Z"/>
    <path class="cls-1" d="m157.46,61.06c1.97.56,3.95,1.07,5.96,1.41.72.13,1.57-.25,1.6-1.07.03-.81-.56-1.57-1.38-1.72-2.01-.34-3.98-.85-5.96-1.41-.72-.19-1.57.31-1.6,1.07-.03.85.6,1.5,1.38,1.72Z"/>
    <path class="cls-1" d="m187.77,33.92c1.6,1.6,3.17,3.23,4.73,4.86l-.35-1.07v.16c0,.85.56,1.5,1.38,1.72,4.11,1.19,8.24,2.35,12.35,3.54.41.13.81.25,1.22.34.12.03.25.06.41.13.25.09-.34-.13.1.03,1.94.81,3.85,1.66,5.77,2.54,1.91.88,2.7-1.76.97-2.54-2.66-1.19-5.26-2.44-8.05-3.26-4.17-1.22-8.34-2.41-12.54-3.6l1.38,1.72c0-1.38-1.41-2.35-2.29-3.26-1.1-1.16-2.23-2.29-3.35-3.42-.53-.53-1.57-.53-2.07.06-.57.66-.16,1.5.38,2.04h-.03Z"/>
    <path class="cls-1" d="m220.8,60.37c-.82-.72-1.66-1.38-2.51-2.04-.31-.25-.69-.41-1.1-.41-.35,0-.75.16-.94.44s-.31.66-.25,1.03c.09.38.28.75.63,1,.85.66,1.69,1.32,2.51,2.04.28.25.72.41,1.1.41.35,0,.75-.16.94-.44.19-.28.31-.66.25-1.03-.09-.41-.31-.72-.63-1Z"/>
    <path class="cls-1" d="m192.5,38.93c3.2,3.54,6.14,7.33,8.93,11.22.72,1,1.35,2.13,2.19,3.04.78.88,2.26,1.22,3.29,1.72,2.32,1.1,4.57,2.32,6.77,3.64.66.38,1.6.13,1.88-.6.35-.81-.28-1.57-.91-1.94-2.04-1.22-4.11-2.35-6.24-3.38-.91-.44-2.51-.91-3.01-1.54-.72-.94-1.35-1.94-2.04-2.91-2.69-3.73-5.52-7.33-8.59-10.72-.5-.56-1.38-.94-2.1-.5-.66.41-.69,1.41-.19,1.97Z"/>
    <path class="cls-1" d="m201.56,71.25c-.09,1.19-.22,2.41-.31,3.6,0,.38.12.78.34,1.07.22.28.63.6,1.04.66.34.06.75.06,1.07-.16.31-.22.5-.53.53-.91.09-1.19.22-2.41.31-3.6.03-.38-.12-.78-.34-1.07-.22-.28-.63-.6-1.04-.66-.34-.06-.75-.06-1.07.16-.31.22-.5.53-.53.91Z"/>
    <path class="cls-1" d="m222.68,72.75c-.85-1.54-2.04-2.73-3.51-3.64-1.47-.91-3.23-1.44-4.92-1.76-.5-.09-1,0-1.32.41-.31.38-.34.94-.12,1.38,1.32,2.63,2.57,5.3,3.76,7.99.31.69,1.22,1.25,1.97.97.75-.28,1.04-1.07.72-1.79-1.19-2.7-2.44-5.36-3.76-7.99l-1.44,1.79c.78.13,1.6.28,2.35.6-.31-.13.13.06.22.09.19.06.34.16.53.22.31.16.63.31.91.47,0,0,.19.09.19.13,0,0-.28-.22-.06,0,.12.09.25.19.38.28.25.19.47.41.72.63.16.13-.25-.28-.06-.06.06.06.09.13.16.19.09.13.19.22.28.34.09.13.19.25.28.41,0,.03.06.16.09.16-.13-.19-.13-.22-.09-.13,0,.03.06.09.06.13.38.66,1.16,1.25,1.98.97.69-.25,1.1-1.1.72-1.79h-.03Z"/>
    <path class="cls-1" d="m214.19,81.24c-.38-2.66-.6-5.36-.12-8.02.19-1,.47-1.97.94-2.88.22-.41.56-.78.63-1.25.06-.69-.47-1.41-.75-1.97-2.63-5.33-5.58-10.5-8.99-15.39-.69-1-2.41-.91-2.6.41-.72,4.98-1.19,10.03-1.57,15.04-.12,1.69,2.82,2.57,2.95.66.38-5.01.85-10.06,1.57-15.04l-2.6.41c3.54,5.05,6.52,10.44,9.18,15.95l.13-1.38c-2.6,3.98-2.29,9.06-1.66,13.57.25,1.72,3.2,1.91,2.91-.06v-.03Z"/>
    <path class="cls-1" d="m192.15,37.71c-1.66,9.78-1.25,19.9-.78,29.77.03.81.53,1.54,1.38,1.72.66.16,1.63-.25,1.6-1.07-.47-9.87-.88-20,.78-29.77.28-1.66-2.63-2.54-2.95-.66h-.03Z"/>
    <path class="cls-1" d="m158.21,5.9c1.47-1.28,3.1-2.38,5.01-2.85,1.69-.44,3.38-.22,5.05.34l-1.35-1.35c.82,3.73,1.41,7.49,1.72,11.28.16,1.72,3.07,1.91,2.92-.06-.19-2.35-.5-4.7-.88-7.02-.19-1.16-.44-2.35-.66-3.51-.16-.81-.31-1.57-1.13-1.97-.47-.22-1.03-.34-1.54-.47-4.04-.94-7.96.5-11,3.17-.6.53-.69,1.32-.19,1.97.41.53,1.47,1.03,2.1.5l-.06-.03Z"/>
    <path class="cls-1" d="m226.32,263.68c-.44,10.4-1.16,20.9-3.1,31.15-1.72,9.21-4.76,17.93-9.21,26.17-.82,1.5,1.94,2.95,2.79,1.35,9.65-17.86,11.6-38.05,12.44-58.01.06-1.69-2.88-2.57-2.95-.66h.03Z"/>
    <path class="cls-1" d="m189.99,343.82c-2.79,1.44-5.61,2.66-8.62,3.76-1.79.66-.35,3.35,1.25,2.76,3.17-1.16,6.27-2.51,9.25-4.07.69-.38.63-1.44.19-1.98-.53-.63-1.35-.88-2.1-.5l.03.03Z"/>
    <path class="cls-1" d="m206.82,330.72c-1.35,1.57-2.79,3.07-4.32,4.48l.28-.25c-.38.34-.78.69-1.16,1-.28.25-.5.5-.53.91,0,.35.13.78.35,1.07.25.31.63.6,1.03.66.35.06.78.06,1.07-.16,2.07-1.72,3.98-3.67,5.77-5.74.5-.6.22-1.6-.38-2.04-.6-.44-1.51-.6-2.07.06h-.03Z"/>
    <path class="cls-1" d="m95.87,132.49c-6.99,10.19-14.51,20.03-23,29.02-5.89,6.24-12.19,12.1-18.37,18.05-4.92,4.73-9.84,9.46-14.76,14.2-1.25,1.19,1.19,3.2,2.44,1.98,7.74-7.46,15.51-14.92,23.22-22.41,6.99-6.77,13.7-13.7,19.84-21.28,4.61-5.67,8.9-11.57,13.04-17.58,1-1.44-1.44-3.42-2.44-1.97h.03Z"/>
    <path class="cls-1" d="m59.92,183.51c-1.19.97-2.32,1.97-3.42,3.07-.25.25-.28.72-.25,1.03.06.38.31.78.63,1,.31.22.72.41,1.1.41l.38-.06c.25-.06.44-.19.6-.38.47-.47.94-.94,1.44-1.38l-.28.25c.56-.5,1.13-.97,1.69-1.44.28-.25.5-.5.53-.91,0-.35-.13-.78-.34-1.07-.25-.31-.63-.6-1.03-.66-.34-.06-.78-.06-1.07.16l.03-.03Z"/>
    <path class="cls-1" d="m48.08,194.39c-3.2,3.67-6.61,7.05-9.31,11.13-2.95,4.48-5.36,9.28-7.55,14.13-2.66,5.83-5.11,11.82-7.24,17.87-1.32,3.7-2.66,7.52-3.1,11.44-.19,1.69,2.73,2.57,2.95.66.44-3.86,1.85-7.65,3.13-11.28,2.1-5.86,4.45-11.66,7.05-17.33,2.19-4.79,4.54-9.53,7.46-13.92,2.6-3.92,5.95-7.21,9.03-10.75,1.16-1.32-1.28-3.29-2.44-1.97l.03.03Z"/>
    <path class="cls-1" d="m218.17,80.55c.09.41.22.78.35,1.16.13.31.25.63.41.91.19.38.47.69.85.88.19.09.38.16.56.16.19.03.38,0,.56-.03.35-.13.66-.34.78-.69.12-.34.09-.75-.06-1.07-.19-.38-.35-.75-.47-1.16l.12.38c-.06-.19-.09-.38-.16-.56-.09-.38-.31-.75-.63-1-.16-.13-.35-.25-.53-.28-.19-.09-.38-.13-.56-.09-.35,0-.72.16-.94.44-.22.28-.31.66-.25,1.03l-.03-.06Z"/>
  </g>
</svg>