<svg width="100" height="100" viewBox="0 0 100 100" fill="none" xmlns="http://www.w3.org/2000/svg">
<g clip-path="url(#clip0_210_82204)">
<path d="M65.6201 56.2402H34.3795C33.5154 56.2402 32.817 56.9387 32.817 57.8027V62.4809C32.817 62.484 32.8154 62.4855 32.8154 62.4887C32.8154 62.4918 32.817 62.4934 32.817 62.4965V74.9902C32.817 77.5746 34.9201 79.6777 37.5045 79.6777H62.4951C65.0795 79.6777 67.1826 77.5746 67.1826 74.9902V57.8027C67.1826 56.9387 66.4842 56.2402 65.6201 56.2402ZM64.0576 59.3652V60.9262H35.942V59.3652H64.0576ZM62.4951 76.5527H37.5045C36.642 76.5527 35.942 75.8527 35.942 74.9902V64.0512H64.0576V74.9902C64.0576 75.8527 63.3576 76.5527 62.4951 76.5527Z" fill="#225588"/>
<path d="M99.9563 49.7812C99.9391 49.6688 99.9297 49.5563 99.8906 49.4516C99.8547 49.3547 99.7953 49.2781 99.7437 49.1922C99.6906 49.1063 99.6453 49.0203 99.5781 48.9469C99.5016 48.8625 99.4078 48.8047 99.3125 48.7391C99.2516 48.6969 99.2078 48.6375 99.1375 48.6016C99.1219 48.5938 99.1062 48.5953 99.0922 48.5891C98.9953 48.5453 98.8891 48.5312 98.7844 48.5063C98.6859 48.4828 98.5906 48.45 98.4906 48.4469C98.4703 48.4469 98.4563 48.4375 98.4375 48.4375H90.625V46.875C90.625 46.0109 89.9266 45.3125 89.0625 45.3125H81.25H78.125C73.8172 45.3125 70.3125 41.8078 70.3125 37.5V23.4375C70.3125 20.8531 68.2094 18.75 65.625 18.75H64.0625V6.25C64.0625 6.04688 64.0219 5.84375 63.9422 5.65312C63.8625 5.46094 63.7484 5.2875 63.6031 5.14375L58.9188 0.459375C58.775 0.314063 58.6016 0.2 58.4094 0.120312C58.2188 0.040625 58.0156 0 57.8125 0H42.1875C41.9844 0 41.7812 0.040625 41.5906 0.120312C41.3984 0.2 41.225 0.314063 41.0812 0.459375L36.3969 5.14375C36.2516 5.2875 36.1375 5.46094 36.0578 5.65312C35.9781 5.84375 35.9375 6.04688 35.9375 6.25V18.75H34.375C31.7906 18.75 29.6875 20.8531 29.6875 23.4375V37.5C29.6875 41.8078 26.1828 45.3125 21.875 45.3125H18.75H10.9375C10.0734 45.3125 9.375 46.0109 9.375 46.875V48.4375H1.5625C1.54375 48.4375 1.52969 48.4469 1.5125 48.4484C1.4125 48.4516 1.31719 48.4844 1.21875 48.5078C1.11406 48.5328 1.00625 48.5453 0.910937 48.5906C0.895312 48.5969 0.879688 48.5953 0.865625 48.6031C0.795313 48.6375 0.751563 48.6984 0.689063 48.7406C0.595313 48.8063 0.501563 48.8641 0.425 48.9484C0.35625 49.0219 0.3125 49.1094 0.259375 49.1937C0.207812 49.2797 0.15 49.3563 0.1125 49.4516C0.0734375 49.5578 0.0640625 49.6703 0.046875 49.7828C0.0328125 49.8563 0 49.9219 0 50C0 50.0172 0.009375 50.0312 0.009375 50.0469C0.0125 50.15 0.046875 50.25 0.071875 50.3531C0.096875 50.4547 0.109375 50.5578 0.153125 50.65C0.159375 50.6656 0.157812 50.6828 0.165625 50.6969L1.37813 53.125L0.165625 55.5516C0.157812 55.5672 0.159375 55.5844 0.153125 55.5984C0.109375 55.6922 0.096875 55.7937 0.071875 55.8953C0.046875 55.9984 0.0125 56.0984 0.009375 56.2016C0.009375 56.2188 0 56.2328 0 56.25C0 56.3281 0.0328125 56.3937 0.04375 56.4688C0.0609375 56.5812 0.0703125 56.6938 0.110938 56.8C0.145313 56.8953 0.204688 56.9719 0.25625 57.0578C0.307813 57.1437 0.354688 57.2297 0.421875 57.3031C0.498438 57.3875 0.592188 57.4453 0.685938 57.5109C0.748438 57.5531 0.792187 57.6125 0.8625 57.6484C0.876562 57.6547 0.892187 57.6516 0.904688 57.6594C1.10312 57.7516 1.31875 57.8109 1.55 57.8125C1.55469 57.8109 1.55781 57.8125 1.56094 57.8125H12.5C12.5016 57.8125 12.5016 57.8125 12.5016 57.8125C12.5047 57.8125 12.5078 57.8109 12.5109 57.8109C12.7422 57.8094 12.9578 57.75 13.1562 57.6578C13.1703 57.65 13.1859 57.6531 13.1984 57.6469C13.2687 57.6125 13.3125 57.5516 13.375 57.5094C13.4688 57.4437 13.5625 57.3859 13.6391 57.3016C13.7078 57.2281 13.7516 57.1406 13.8047 57.0562C13.8562 56.9703 13.9141 56.8937 13.9516 56.7969C13.9906 56.6922 14 56.5797 14.0172 56.4672C14.0297 56.3937 14.0625 56.3281 14.0625 56.25C14.0625 56.2328 14.0531 56.2188 14.0531 56.2031C14.05 56.1 14.0156 56 13.9906 55.8984C13.9656 55.7969 13.9547 55.6922 13.9094 55.5984C13.9031 55.5844 13.9047 55.5672 13.8969 55.5531L13.4656 54.6875H17.1875V95.3125C17.1875 97.8969 19.2906 100 21.875 100H78.125C80.7094 100 82.8125 97.8969 82.8125 95.3125V54.6875H86.5344L86.1031 55.5516C86.0953 55.5672 86.0969 55.5844 86.0906 55.5984C86.0469 55.6922 86.0344 55.7937 86.0094 55.8953C85.9844 55.9984 85.95 56.0984 85.9469 56.2016C85.9469 56.2188 85.9375 56.2328 85.9375 56.25C85.9375 56.3281 85.9703 56.3937 85.9812 56.4688C85.9984 56.5812 86.0078 56.6938 86.0484 56.8C86.0828 56.8953 86.1422 56.9719 86.1938 57.0578C86.2453 57.1437 86.2922 57.2297 86.3594 57.3031C86.4359 57.3875 86.5297 57.4453 86.6234 57.5109C86.6859 57.5531 86.7297 57.6125 86.8 57.6484C86.8141 57.6547 86.8297 57.6516 86.8422 57.6594C87.0406 57.7516 87.2562 57.8109 87.4875 57.8125C87.4906 57.8125 87.4938 57.8141 87.4969 57.8141H98.4359C98.4391 57.8141 98.4437 57.8125 98.4469 57.8125C98.6781 57.8109 98.8937 57.7516 99.0922 57.6594C99.1062 57.6516 99.1219 57.6547 99.1344 57.6484C99.2047 57.6141 99.2484 57.5531 99.3109 57.5109C99.4047 57.4453 99.4984 57.3875 99.575 57.3031C99.6438 57.2297 99.6875 57.1422 99.7406 57.0578C99.7922 56.9719 99.85 56.8953 99.8875 56.7984C99.9266 56.6938 99.9359 56.5812 99.9531 56.4688C99.9672 56.3937 100 56.3281 100 56.25C100 56.2328 99.9906 56.2188 99.9906 56.2031C99.9875 56.1 99.9531 56 99.9281 55.8984C99.9031 55.7969 99.8922 55.6922 99.8469 55.5984C99.8406 55.5844 99.8422 55.5672 99.8344 55.5531L98.6219 53.125L99.8344 50.6984C99.8422 50.6828 99.8406 50.6656 99.8469 50.6531C99.8906 50.5578 99.9031 50.4547 99.9281 50.3547C99.9531 50.2516 99.9875 50.1516 99.9906 50.0484C99.9906 50.0312 100 50.0172 100 50C100 49.9219 99.9672 49.8563 99.9563 49.7812ZM95.9094 51.5625L95.4781 52.4266C95.2578 52.8656 95.2578 53.3844 95.4781 53.825L95.9094 54.6875H90.0281L90.4594 53.8234C90.4672 53.8078 90.4656 53.7906 90.4719 53.7781C90.5156 53.6828 90.5281 53.5797 90.5531 53.4797C90.5781 53.3766 90.6125 53.2766 90.6156 53.1734C90.6156 53.1562 90.625 53.1422 90.625 53.125V51.5625H95.9094ZM59.375 18.75V5.33437L60.9375 6.89687V18.75H59.375ZM43.75 18.75V7.8125H56.25V18.75H43.75ZM56.25 4.6875H43.75V3.125H56.25V4.6875ZM39.0625 6.89687L40.625 5.33437V18.75H39.0625V6.89687ZM9.375 53.125C9.375 53.1422 9.38437 53.1562 9.38437 53.1719C9.3875 53.275 9.42188 53.375 9.44687 53.4781C9.47188 53.5797 9.48438 53.6828 9.52812 53.775C9.53438 53.7906 9.53281 53.8078 9.54062 53.8219L9.97188 54.6875H4.09062L4.52187 53.8234C4.74219 53.3844 4.74219 52.8656 4.52187 52.425L4.09062 51.5625H9.375V53.125ZM12.5 51.5625V48.4375H17.1875V51.5625H12.5ZM78.125 96.875H21.875C21.0125 96.875 20.3125 96.175 20.3125 95.3125V48.4375H21.875C27.9047 48.4375 32.8125 43.5297 32.8125 37.5V23.4375C32.8125 22.575 33.5125 21.875 34.375 21.875H65.625C66.4875 21.875 67.1875 22.575 67.1875 23.4375V37.5C67.1875 43.5297 72.0953 48.4375 78.125 48.4375H79.6875V95.3125C79.6875 96.175 78.9875 96.875 78.125 96.875ZM82.8125 48.4375H87.5V51.5625H82.8125V48.4375Z" fill="#225588"/>
</g>
<defs>
<clipPath id="clip0_210_82204">
<rect width="100" height="100" fill="white"/>
</clipPath>
</defs>
</svg>
