<svg width="100" height="100" viewBox="0 0 100 100" fill="none" xmlns="http://www.w3.org/2000/svg">
<path d="M99.9891 98.0213C99.9871 97.923 99.9771 97.825 99.9592 97.7283L79.2111 1.5487L79.2036 1.51447L79.1962 1.47918C79.1962 1.45778 79.178 1.44067 79.1726 1.42035C79.1444 1.28911 79.1018 1.1614 79.0453 1.03959L79.0336 1.02248C79.0197 0.994673 78.9972 0.973281 78.9812 0.946543C78.9512 0.895204 78.9159 0.850286 78.8817 0.802156C78.8293 0.721759 78.7706 0.645588 78.7063 0.574342C78.6721 0.540117 78.6336 0.51231 78.5993 0.480224C78.5651 0.448137 78.5159 0.410703 78.471 0.373269C78.3952 0.317482 78.3151 0.267772 78.2314 0.224603C78.2026 0.209629 78.1833 0.18396 78.1534 0.170055C78.1234 0.156151 78.0977 0.159362 78.071 0.148666C78.0443 0.137971 77.9961 0.11444 77.9555 0.101606C77.8611 0.0734549 77.7645 0.0534176 77.6667 0.0417116C77.5986 0.0274484 77.5297 0.0178001 77.4603 0.0128336C77.4304 0.0128336 77.4036 0 77.3737 0H22.6313C22.3408 8.2963e-05 22.0542 0.0677705 21.7943 0.197712C21.5344 0.327653 21.3084 0.516282 21.134 0.748678L6.7914 19.7491C6.58284 20.0272 6.45584 20.3578 6.42462 20.704C6.39341 21.0502 6.45921 21.3983 6.61466 21.7092C6.77011 22.0201 7.00907 22.2815 7.30475 22.4643C7.60043 22.647 7.94116 22.7438 8.28876 22.7438H16.2173L0.0425945 97.7336C-0.0166995 98.0066 -0.0140571 98.2895 0.0503281 98.5613C0.114713 98.8332 0.239203 99.0871 0.414648 99.3045C0.590092 99.5219 0.812031 99.6973 1.06415 99.8176C1.31626 99.938 1.59214 100 1.87151 100H56.5999H56.6117H98.1302C98.3085 99.9973 98.4853 99.9689 98.6554 99.9155C98.7014 99.9016 98.7463 99.8856 98.7912 99.8674C98.9251 99.8175 99.0526 99.7518 99.1709 99.6717C99.1987 99.6524 99.2287 99.6396 99.2554 99.6192C99.3785 99.5286 99.4899 99.4229 99.587 99.3048C99.5998 99.2877 99.6073 99.2684 99.6201 99.2513C99.633 99.2342 99.6629 99.1829 99.6854 99.1444C99.7649 99.0237 99.8298 98.8941 99.879 98.7583C99.8886 98.7315 99.9078 98.7112 99.9153 98.6845C99.9228 98.6577 99.9153 98.6524 99.9228 98.6363C99.9726 98.4672 99.9982 98.2918 99.9987 98.1155C99.9987 98.0855 99.9913 98.0566 99.9891 98.0213ZM12.0461 19.0047L23.564 3.74126H73.611L62.0867 19.0047H12.0461ZM55.0887 96.2566H4.19027L20.0462 22.7481H63.0172C63.3078 22.7482 63.5944 22.6807 63.8544 22.5507C64.1143 22.4207 64.3403 22.232 64.5146 21.9994L73.7447 9.7724L66.6376 42.7335L55.0887 96.2566ZM62.5637 96.2566L77.3672 85.9355L92.1708 96.2513L62.5637 96.2566ZM79.2421 82.6831V56.7124C79.2421 56.216 79.045 55.74 78.6939 55.389C78.3429 55.0379 77.8669 54.8407 77.3704 54.8407C76.874 54.8407 76.398 55.0379 76.047 55.389C75.6959 55.74 75.4987 56.216 75.4987 56.7124V82.6777L59.4374 93.8715L70.688 41.7111L77.3683 10.7521L95.297 93.8715L79.2421 82.6831Z" fill="#225588"/>
<path d="M53.1177 33.5811H28.1204C26.7281 33.5868 25.3794 34.0676 24.2975 34.9439C23.2156 35.8203 22.4652 37.0396 22.1705 38.4004L20.3074 47.1706C20.1192 48.0571 20.1315 48.9743 20.3432 49.8554C20.5549 50.7364 20.9607 51.5591 21.5311 52.2633C22.1014 52.9675 22.8217 53.5354 23.6396 53.9255C24.4575 54.3157 25.3521 54.5182 26.2583 54.5184H51.4866C52.9068 54.518 54.2822 54.0209 55.3745 53.1132C56.4667 52.2055 57.2072 50.9444 57.4675 49.5482L59.0986 40.7833C59.2618 39.9052 59.2298 39.0019 59.0047 38.1376C58.7796 37.2732 58.367 36.469 57.7961 35.7821C57.2252 35.0952 56.5101 34.5423 55.7016 34.1629C54.893 33.7834 54.0109 33.5866 53.1177 33.5864V33.5811ZM55.4183 40.0924L53.7872 48.8627C53.6869 49.3996 53.402 49.8845 52.9819 50.2335C52.5618 50.5826 52.0328 50.7737 51.4866 50.7739H26.2572C25.9086 50.7739 25.5644 50.696 25.2498 50.5459C24.9352 50.3958 24.658 50.1773 24.4387 49.9064C24.2193 49.6355 24.0632 49.3189 23.9819 48.98C23.9005 48.641 23.8959 48.2881 23.9684 47.9471L25.8294 39.179C25.9429 38.6556 26.2315 38.1865 26.6477 37.8492C27.0638 37.512 27.5826 37.3269 28.1182 37.3245H53.1177C53.4612 37.3247 53.8004 37.4004 54.1113 37.5464C54.4222 37.6924 54.6972 37.905 54.9168 38.1692C55.1363 38.4333 55.2951 38.7426 55.3817 39.0749C55.4684 39.4073 55.4809 39.7547 55.4183 40.0924Z" fill="#225588"/>
</svg>
