<svg width="100" height="100" viewBox="0 0 100 100" fill="none" xmlns="http://www.w3.org/2000/svg">
<path d="M64.0625 3.125C61.4807 3.125 59.375 5.23071 59.375 7.8125C59.375 9.60693 60.4004 11.145 61.8835 11.9385L58.1482 20.0195C55.6396 20.6482 53.2471 21.8567 51.3184 23.4924C51.1719 23.1384 51.001 22.7844 50.7996 22.4365C47.583 16.8762 39.2151 15.9912 38.8611 15.9607C38.1958 15.9058 37.5549 16.2598 37.2803 16.8701C37.1704 17.1143 35.1685 21.6248 35.6323 26.2207L28.125 33.728L24.0845 29.6875C22.8699 28.4729 20.8801 28.4729 19.6655 29.6875L8.72803 40.625H4.6875C2.10571 40.625 0 42.7307 0 45.3125V54.6875C0 56.7993 1.40381 58.5938 3.33252 59.1736L8.95996 92.9565C9.33838 95.2271 11.2793 96.875 13.5864 96.875H86.4136C88.7146 96.875 90.6616 95.2271 91.04 92.9565L96.6675 59.1736C98.5962 58.5938 100 56.7993 100 54.6875V45.3125C100 42.7307 97.8943 40.625 95.3125 40.625H91.98L91.6443 38.269C90.9363 33.313 89.5142 28.4973 87.4207 23.9502L81.8665 11.9385C83.3496 11.145 84.375 9.60693 84.375 7.8125C84.375 5.23071 82.2693 3.125 79.6875 3.125H64.0625ZM64.0625 6.25H79.6875C80.5481 6.25 81.25 6.9519 81.25 7.8125C81.25 8.6731 80.5481 9.375 79.6875 9.375H64.0625C63.2019 9.375 62.5 8.6731 62.5 7.8125C62.5 6.9519 63.2019 6.25 64.0625 6.25ZM65.0635 12.5H78.6865L84.5764 25.2686C86.5479 29.5349 87.8845 34.0576 88.5498 38.7146L88.8245 40.625H81.7383C80.5237 34.259 77.7832 28.5645 74.1272 24.9084C69.7083 20.4895 65.1367 19.5068 61.8164 19.5435L65.0635 12.5ZM39.7095 19.2505C41.8274 19.6594 46.2769 20.8679 48.0896 23.999C49.9023 27.1423 48.7183 31.5979 48.0164 33.6365C45.8923 33.2275 41.4429 32.019 39.6301 28.8818C37.8235 25.7446 39.0015 21.2891 39.7095 19.2505ZM62.5732 22.6807C65.9485 22.8455 69.1467 24.353 71.9177 27.124C74.9817 30.188 77.3987 35.1685 78.5461 40.625H38.8611C39.3127 39.9536 39.8254 39.3311 40.3748 38.7878C41.7908 37.3657 43.5303 36.5417 45.5322 36.261C47.345 36.7676 48.7244 36.9202 48.8708 36.9324C48.9197 36.9385 48.9685 36.9385 49.0234 36.9385C49.6277 36.9385 50.1892 36.5845 50.4395 36.0229C50.5493 35.7849 52.4292 31.5369 52.124 27.0996C52.2949 26.8982 52.4597 26.6968 52.6428 26.5137C54.8157 24.3408 57.9834 22.9126 61.1206 22.6929C61.6089 22.6624 62.0972 22.6562 62.5732 22.6807ZM36.5601 29.7119C36.676 29.9622 36.7859 30.2063 36.9263 30.4504C37.9395 32.2083 39.4714 33.4961 41.1011 34.4421C40.033 34.9976 39.0381 35.6995 38.1592 36.5723C37.0178 37.7197 36.0352 39.1113 35.26 40.625H25.647L36.5601 29.7119ZM21.875 31.897L25.9155 35.9375L21.228 40.625H13.147L21.875 31.897ZM4.6875 43.75H95.3125C96.1731 43.75 96.875 44.4519 96.875 45.3125V54.6875C96.875 55.5481 96.1731 56.25 95.3125 56.25C94.5496 56.25 93.8965 56.8054 93.7744 57.5562L87.9578 92.4438C87.8357 93.2007 87.1826 93.75 86.4197 93.75H13.5864C12.8174 93.75 12.1643 93.2007 12.0422 92.4438L6.53076 59.375H76.5625C77.4292 59.375 78.125 58.6792 78.125 57.8125C78.125 56.9458 77.4292 56.25 76.5625 56.25H4.6875C3.8269 56.25 3.125 55.5481 3.125 54.6875V45.3125C3.125 44.4519 3.8269 43.75 4.6875 43.75ZM82.8125 56.25C81.9458 56.25 81.25 56.9458 81.25 57.8125C81.25 58.6792 81.9458 59.375 82.8125 59.375H89.0625C89.9292 59.375 90.625 58.6792 90.625 57.8125C90.625 56.9458 89.9292 56.25 89.0625 56.25H82.8125ZM14.0625 62.5C13.1958 62.5 12.5 63.1958 12.5 64.0625V67.1875C12.5 68.0542 13.1958 68.75 14.0625 68.75C14.9292 68.75 15.625 68.0542 15.625 67.1875V64.0625C15.625 63.1958 14.9292 62.5 14.0625 62.5ZM21.875 62.5C21.0083 62.5 20.3125 63.1958 20.3125 64.0625V67.1875C20.3125 68.0542 21.0083 68.75 21.875 68.75C22.7417 68.75 23.4375 68.0542 23.4375 67.1875V64.0625C23.4375 63.1958 22.7417 62.5 21.875 62.5ZM29.6875 62.5C28.8208 62.5 28.125 63.1958 28.125 64.0625V67.1875C28.125 68.0542 28.8208 68.75 29.6875 68.75C30.5542 68.75 31.25 68.0542 31.25 67.1875V64.0625C31.25 63.1958 30.5542 62.5 29.6875 62.5ZM37.5 62.5C36.6333 62.5 35.9375 63.1958 35.9375 64.0625V67.1875C35.9375 68.0542 36.6333 68.75 37.5 68.75C38.3667 68.75 39.0625 68.0542 39.0625 67.1875V64.0625C39.0625 63.1958 38.3667 62.5 37.5 62.5ZM45.3125 62.5C44.4458 62.5 43.75 63.1958 43.75 64.0625V67.1875C43.75 68.0542 44.4458 68.75 45.3125 68.75C46.1792 68.75 46.875 68.0542 46.875 67.1875V64.0625C46.875 63.1958 46.1792 62.5 45.3125 62.5ZM54.6875 62.5C53.8208 62.5 53.125 63.1958 53.125 64.0625V67.1875C53.125 68.0542 53.8208 68.75 54.6875 68.75C55.5542 68.75 56.25 68.0542 56.25 67.1875V64.0625C56.25 63.1958 55.5542 62.5 54.6875 62.5ZM62.5 62.5C61.6333 62.5 60.9375 63.1958 60.9375 64.0625V67.1875C60.9375 68.0542 61.6333 68.75 62.5 68.75C63.3667 68.75 64.0625 68.0542 64.0625 67.1875V64.0625C64.0625 63.1958 63.3667 62.5 62.5 62.5ZM70.3125 62.5C69.4458 62.5 68.75 63.1958 68.75 64.0625V67.1875C68.75 68.0542 69.4458 68.75 70.3125 68.75C71.1792 68.75 71.875 68.0542 71.875 67.1875V64.0625C71.875 63.1958 71.1792 62.5 70.3125 62.5ZM78.125 62.5C77.2583 62.5 76.5625 63.1958 76.5625 64.0625V67.1875C76.5625 68.0542 77.2583 68.75 78.125 68.75C78.9917 68.75 79.6875 68.0542 79.6875 67.1875V64.0625C79.6875 63.1958 78.9917 62.5 78.125 62.5ZM85.9375 62.5C85.0708 62.5 84.375 63.1958 84.375 64.0625V67.1875C84.375 68.0542 85.0708 68.75 85.9375 68.75C86.8042 68.75 87.5 68.0542 87.5 67.1875V64.0625C87.5 63.1958 86.8042 62.5 85.9375 62.5ZM17.1875 87.5C16.3208 87.5 15.625 88.1958 15.625 89.0625C15.625 89.9292 16.3208 90.625 17.1875 90.625H70.3125C71.1792 90.625 71.875 89.9292 71.875 89.0625C71.875 88.1958 71.1792 87.5 70.3125 87.5H17.1875ZM76.5625 87.5C75.6958 87.5 75 88.1958 75 89.0625C75 89.9292 75.6958 90.625 76.5625 90.625H82.8125C83.6792 90.625 84.375 89.9292 84.375 89.0625C84.375 88.1958 83.6792 87.5 82.8125 87.5H76.5625Z" fill="#1F4328"/>
</svg>
