<svg width="100" height="100" viewBox="0 0 100 100" fill="none" xmlns="http://www.w3.org/2000/svg">
<path d="M86.7188 100C87.5828 100 88.2812 99.3016 88.2812 98.4375V82.8125V1.5625C88.2812 0.698438 87.5828 0 86.7188 0H21.0938C15.9234 0 11.7188 4.20469 11.7188 9.375V90.625C11.7188 95.7953 15.9234 100 21.0938 100H86.7188ZM85.1562 81.25H25.7812V3.125H85.1562V81.25ZM82.0312 84.375H85.1562V96.875H82.0312V84.375ZM21.0938 3.125H22.6562V81.25H21.0938C18.6922 81.25 16.5031 82.1656 14.8438 83.6562V9.375C14.8438 5.92812 17.6469 3.125 21.0938 3.125ZM14.8438 90.625C14.8438 87.1781 17.6469 84.375 21.0938 84.375H78.9062V89.0656H21.0938C20.2297 89.0656 19.5312 89.7641 19.5312 90.6281C19.5312 91.4922 20.2297 92.1906 21.0938 92.1906H78.9062V96.875H21.0938C17.6469 96.875 14.8438 94.0719 14.8438 90.625Z" fill="#1F4328"/>
<path d="M33.5986 26.5605C33.5986 31.1965 36.983 35.0465 41.4096 35.7934V49.9965C41.4096 50.8605 42.108 51.559 42.9721 51.559H67.9736C68.8377 51.559 69.5361 50.8605 69.5361 49.9965V35.7934C73.9611 35.0449 77.3455 31.1965 77.3455 26.5605C77.3455 21.3902 73.1408 17.1855 67.9705 17.1855H64.4346C62.4549 14.3559 59.1783 12.498 55.4721 12.498C51.7658 12.498 48.4877 14.3559 46.5096 17.1855H42.9721C37.8018 17.1871 33.5986 21.3902 33.5986 26.5605ZM44.5346 46.8746H66.4111V48.434H44.5346V46.8746ZM42.9736 20.3105H44.9955C44.7002 21.3027 44.5346 22.3496 44.5346 23.4355C44.5346 24.2996 45.233 24.998 46.0971 24.998C46.9611 24.998 47.6596 24.2996 47.6596 23.4355C47.6596 19.1277 51.1643 15.623 55.4721 15.623C59.7799 15.623 63.2846 19.1277 63.2846 23.4355C63.2846 24.2996 63.983 24.998 64.8471 24.998C65.7111 24.998 66.4096 24.2996 66.4096 23.4355C66.4096 22.3496 66.2455 21.3027 65.9486 20.3105H67.9705C71.4174 20.3105 74.2205 23.1137 74.2205 26.5605C74.2205 30.0027 71.4236 32.8027 67.983 32.809C67.9799 32.809 67.9768 32.8074 67.9736 32.8074C67.5424 32.8074 67.1502 32.9824 66.8674 33.2668C66.583 33.5496 66.408 33.9418 66.408 34.373C66.408 34.3777 66.4111 34.3824 66.4111 34.3887V43.7496H44.5346V34.3809C44.5346 34.3777 44.5361 34.3762 44.5361 34.373C44.5361 34.1559 44.4924 33.9496 44.4127 33.7621C44.1768 33.2012 43.6205 32.8074 42.9721 32.8074C42.9689 32.8074 42.9658 32.809 42.9627 32.809C39.5205 32.8027 36.7236 30.0043 36.7236 26.5605C36.7236 23.1137 39.5268 20.3105 42.9736 20.3105Z" fill="#1F4328"/>
<path d="M72.6547 57.8105H38.2891C37.425 57.8105 36.7266 58.509 36.7266 59.373C36.7266 60.2371 37.425 60.9355 38.2891 60.9355H72.6547C73.5188 60.9355 74.2172 60.2371 74.2172 59.373C74.2172 58.509 73.5188 57.8105 72.6547 57.8105Z" fill="#1F4328"/>
<path d="M72.6547 62.498H38.2891C37.425 62.498 36.7266 63.1965 36.7266 64.0605C36.7266 64.9246 37.425 65.623 38.2891 65.623H72.6547C73.5188 65.623 74.2172 64.9246 74.2172 64.0605C74.2172 63.1965 73.5188 62.498 72.6547 62.498Z" fill="#1F4328"/>
<path d="M64.8434 67.2266H46.0996C45.2355 67.2266 44.5371 67.925 44.5371 68.7891C44.5371 69.6531 45.2355 70.3516 46.0996 70.3516H64.8434C65.7074 70.3516 66.4059 69.6531 66.4059 68.7891C66.4059 67.925 65.7074 67.2266 64.8434 67.2266Z" fill="#1F4328"/>
</svg>
