<svg width="100" height="100" viewBox="0 0 100 100" fill="none" xmlns="http://www.w3.org/2000/svg">
<path d="M98.4375 68.7488V35.9395C98.4375 28.1863 92.1297 21.877 84.375 21.877H15.6266C7.87188 21.877 1.56406 28.1863 1.56406 35.9395V68.7488H1.5625C0.698438 68.7488 0 69.4473 0 70.3113V76.5613C0 77.4254 0.698438 78.1238 1.5625 78.1238H98.4375C99.3016 78.1238 100 77.4254 100 76.5613V70.3113C100 69.4473 99.3016 68.7488 98.4375 68.7488ZM15.6266 25.002H84.375C89.875 25.002 94.4266 29.0848 95.1875 34.377H60.9406V31.2488C60.9406 30.3863 60.2422 29.6863 59.3781 29.6863H40.6281C39.7641 29.6863 39.0656 30.3863 39.0656 31.2488V34.377H4.81406C5.575 29.0848 10.1281 25.002 15.6266 25.002ZM42.1906 34.377V32.8113H57.8156V34.377H42.1906ZM4.68906 37.502H95.3125V68.7488H86.9453C90.1391 66.1691 92.1875 62.227 92.1875 57.8113C92.1875 50.0582 85.8797 43.7488 78.125 43.7488H21.8766C14.1219 43.7488 7.81406 50.0582 7.81406 57.8113C7.81406 62.227 9.86406 66.1691 13.0562 68.7488H4.68906V37.502ZM21.8766 68.7488C15.8469 68.7488 10.9391 63.841 10.9391 57.8113C10.9391 51.7816 15.8469 46.8738 21.8766 46.8738H30.2844L28.2906 50.8629C27.9047 51.6348 28.2172 52.5738 28.9891 52.9598C29.2141 53.0707 29.4516 53.1238 29.6859 53.1238C30.2594 53.1238 30.8109 52.8082 31.0859 52.2598L33.7797 46.8738H42.7859L40.7922 50.8629C40.4062 51.6348 40.7188 52.5738 41.4906 52.9598C41.7156 53.0707 41.9531 53.1238 42.1875 53.1238C42.7609 53.1238 43.3125 52.8082 43.5875 52.2598L46.2812 46.8738H55.2875L53.2938 50.8629C52.9078 51.6348 53.2203 52.5738 53.9922 52.9598C54.2172 53.0707 54.4547 53.1238 54.6891 53.1238C55.2625 53.1238 55.8141 52.8082 56.0891 52.2598L58.7828 46.8738H67.7891L65.7953 50.8629C65.4094 51.6348 65.7219 52.5738 66.4938 52.9598C66.7188 53.0707 66.9562 53.1238 67.1906 53.1238C67.7641 53.1238 68.3156 52.8082 68.5906 52.2598L71.2844 46.8738H78.125C84.1547 46.8738 89.0625 51.7816 89.0625 57.8113C89.0625 63.841 84.1547 68.7488 78.125 68.7488H21.8766ZM96.875 74.9988H3.125V71.8738H96.875V74.9988Z" fill="#1F4328"/>
</svg>
