<svg width="100" height="101" viewBox="0 0 100 101" fill="none" xmlns="http://www.w3.org/2000/svg">
<path d="M28.5897 18.375H27.5897H16.5848C16.5846 18.375 16.5845 18.375 16.5843 18.375C14.9283 18.3758 13.3401 19.0334 12.1682 20.2036C10.9964 21.3737 10.3364 22.9607 10.333 24.6166V93.2349C10.3364 94.8909 10.9964 96.4778 12.1682 97.6479C13.3401 98.8181 14.9283 99.4757 16.5843 99.4766L28.5897 18.375ZM28.5897 18.375V17.375M28.5897 18.375V17.375M28.5897 17.375V7.72908C28.5916 6.07141 29.251 4.48219 30.4232 3.31004C31.5952 2.13803 33.1842 1.47867 34.8416 1.47656H83.5463C85.2038 1.47867 86.7928 2.13802 87.9648 3.31004C89.1369 4.48219 89.7963 6.0714 89.7982 7.72907V76.3363C89.7963 77.994 89.1369 79.5832 87.9648 80.7554C86.7926 81.9275 85.2034 82.5869 83.5457 82.5889H72.5523H71.5523M28.5897 17.375L71.5523 82.5889M71.5523 82.5889V83.5889M71.5523 82.5889V83.5889M71.5523 83.5889V93.234C71.5491 94.8903 70.8891 96.4776 69.7171 97.6479C68.5452 98.8181 66.957 99.4757 65.3009 99.4766C65.3008 99.4766 65.3006 99.4766 65.3005 99.4766M71.5523 83.5889L65.3005 99.4766M69.8089 93.2359V93.2387C69.8057 94.4321 69.3292 95.5755 68.484 96.4181C67.6389 97.2606 66.4942 97.7335 65.3009 97.7332L69.8089 93.2359ZM69.8089 93.2359V83.5889V82.5889H68.8089H34.8422C33.1845 82.5869 31.5953 81.9275 30.4232 80.7554C29.251 79.5832 28.5916 77.994 28.5897 76.3363V21.1183V20.1183H27.5897H16.5847C16.5846 20.1183 16.5844 20.1183 16.5843 20.1183C15.391 20.118 14.2463 20.591 13.4012 21.4335C12.5561 22.2761 12.0796 23.4194 12.0763 24.6129V24.6156L12.0763 93.2359L12.0763 93.2387M69.8089 93.2359L12.0763 93.2387M12.0763 93.2387C12.0796 94.4321 12.5561 95.5755 13.4012 96.4181C14.2463 97.2606 15.391 97.7335 16.5843 97.7332M12.0763 93.2387L16.5843 97.7332M65.3005 99.4766H16.5848H65.3005ZM16.5846 97.7332H65.3006H16.5846ZM16.5846 97.7332C16.5845 97.7332 16.5844 97.7332 16.5843 97.7332M16.5846 97.7332H16.5843M88.0549 76.3387V76.3375V7.7279V7.72668C88.0535 6.53185 87.5782 5.38637 86.7333 4.5415C85.8884 3.69662 84.743 3.22133 83.5481 3.21988H83.5469L34.841 3.21988L34.8401 3.21988C33.6451 3.22097 32.4993 3.69617 31.6543 4.54118C30.8093 5.38619 30.3341 6.53196 30.333 7.72699V7.7279V76.3375V76.3384C30.3341 77.5335 30.8093 78.6792 31.6543 79.5242C32.4993 80.3692 33.6451 80.8445 34.8401 80.8455H34.841H83.5469H83.5481C84.743 80.8441 85.8884 80.3688 86.7333 79.5239C87.5782 78.679 88.0535 77.5336 88.0549 76.3387Z" fill="#225588" stroke="#225588" stroke-width="2"/>
<path d="M76.5734 15.0586H41.814C41.3176 15.0586 40.8416 15.2558 40.4906 15.6068C40.1396 15.9578 39.9424 16.4339 39.9424 16.9302C39.9424 17.4266 40.1396 17.9027 40.4906 18.2537C40.8416 18.6047 41.3176 18.8019 41.814 18.8019H76.5734C77.0698 18.8019 77.5459 18.6047 77.8969 18.2537C78.2479 17.9027 78.4451 17.4266 78.4451 16.9302C78.4451 16.4339 78.2479 15.9578 77.8969 15.6068C77.5459 15.2558 77.0698 15.0586 76.5734 15.0586Z" fill="#225588"/>
<path d="M41.814 28.1094H76.5734C76.9372 28.1094 77.2861 28.2539 77.5433 28.5111C77.8005 28.7684 77.9451 29.1172 77.9451 29.481C77.9451 29.8448 77.8005 30.1937 77.5433 30.4509C77.2861 30.7082 76.9372 30.8527 76.5734 30.8527H41.814C41.4503 30.8527 41.1014 30.7082 40.8441 30.4509C40.5869 30.1937 40.4424 29.8448 40.4424 29.481C40.4424 29.1172 40.5869 28.7684 40.8441 28.5111C41.1014 28.2539 41.4503 28.1094 41.814 28.1094Z" fill="#225588" stroke="#225588"/>
<path d="M41.814 40.4111H76.5734C77.0035 40.4111 77.416 40.582 77.7201 40.8861C78.0242 41.1902 78.1951 41.6027 78.1951 42.0328C78.1951 42.4629 78.0242 42.8754 77.7201 43.1795C77.416 43.4836 77.0035 43.6544 76.5734 43.6544H41.814C41.3839 43.6544 40.9715 43.4836 40.6674 43.1795C40.3632 42.8754 40.1924 42.4629 40.1924 42.0328C40.1924 41.6027 40.3632 41.1902 40.6674 40.8861C40.9715 40.582 41.3839 40.4111 41.814 40.4111Z" fill="#225588" stroke="#225588" stroke-width="0.5"/>
<path d="M41.814 52.9629H76.5734C77.0035 52.9629 77.416 53.1337 77.7201 53.4379C78.0242 53.742 78.1951 54.1545 78.1951 54.5845C78.1951 55.0146 78.0242 55.4271 77.7201 55.7312C77.416 56.0354 77.0035 56.2062 76.5734 56.2062H41.814C41.384 56.2062 40.9715 56.0354 40.6674 55.7312C40.3632 55.4271 40.1924 55.0146 40.1924 54.5845C40.1924 54.1545 40.3632 53.742 40.6674 53.4379C40.9715 53.1337 41.3839 52.9629 41.814 52.9629Z" fill="#225588" stroke="#225588" stroke-width="0.5"/>
<path d="M41.814 65.5137H76.5734C77.0035 65.5137 77.416 65.6845 77.7201 65.9886C78.0242 66.2928 78.1951 66.7052 78.1951 67.1353C78.1951 67.5654 78.0242 67.9779 77.7201 68.282C77.416 68.5861 77.0035 68.757 76.5734 68.757H41.814C41.3839 68.757 40.9715 68.5861 40.6674 68.282C40.3632 67.9779 40.1924 67.5654 40.1924 67.1353C40.1924 66.7052 40.3632 66.2928 40.6674 65.9886C40.9715 65.6845 41.384 65.5137 41.814 65.5137Z" fill="#225588" stroke="#225588" stroke-width="0.5"/>
</svg>
