<svg width="100" height="100" viewBox="0 0 100 100" fill="none" xmlns="http://www.w3.org/2000/svg">
<path d="M31.1217 4.68774C30.7992 4.6811 30.4751 4.77483 30.197 4.96545C29.6392 5.3467 29.3885 6.03523 29.5744 6.68054L35.4277 26.9991C33.8027 27.7413 32.6659 29.3642 32.6659 31.2533C32.6659 32.6049 33.2545 33.815 34.1795 34.6713L20.7884 43.7991C14.3744 48.1725 10.2037 55.0817 9.34434 62.7535L6.27733 90.1095C6.13045 91.4329 6.55999 92.7611 7.4553 93.7533C8.35062 94.7455 9.63484 95.3127 10.977 95.3127H89.0227C90.3649 95.3127 91.6491 94.7455 92.5444 93.7533C93.4397 92.7611 93.8693 91.4329 93.7224 90.1095L90.6554 62.7535C89.796 55.0817 85.6239 48.171 79.2082 43.796L65.8171 34.6682C66.3062 34.2167 66.7067 33.6756 66.9676 33.0569L82.8093 35.9133C82.9046 35.9305 82.9994 35.9377 83.0931 35.9377C83.84 35.9377 84.5029 35.4107 84.6404 34.656C84.7966 33.8076 84.2271 32.9918 83.3708 32.8372L70.294 30.4812L77.5694 26.3552C78.3241 25.9271 78.5866 24.9735 78.1554 24.2251C77.7257 23.4767 76.7647 23.2187 76.0069 23.6453L66.6869 28.9248C66.1978 28.0842 65.4611 27.4085 64.569 26.9991L70.4253 6.68054C70.6112 6.03523 70.3605 5.34365 69.8027 4.9624C69.2449 4.58428 68.5063 4.59746 67.9625 4.99902L62.6036 8.98462L57.2478 4.99902C56.6884 4.58027 55.9151 4.58184 55.3557 4.99902L49.9999 8.98767L44.641 5.00208C44.0816 4.58489 43.3113 4.58489 42.7519 5.00208L37.393 8.98767L32.0372 5.00208C31.7661 4.80051 31.4441 4.69439 31.1217 4.68774ZM43.698 8.20642L49.0569 12.189C49.6162 12.6077 50.3865 12.6062 50.9459 12.189L56.3048 8.20642L61.6637 12.189C62.2231 12.6077 62.9933 12.6062 63.5527 12.189L66.1101 10.2908L61.4195 26.5627H38.5832L33.8927 10.2877L36.4501 12.189C37.0094 12.6062 37.7797 12.6062 38.3391 12.189L43.698 8.20642ZM37.3961 29.6877H62.6006H62.6067C63.4754 29.6893 64.1814 30.3893 64.1814 31.2502C64.1814 32.1112 63.4739 32.8127 62.6067 32.8127H37.3961C36.5273 32.8127 35.8214 32.1112 35.8214 31.2502C35.8214 30.3893 36.5273 29.6877 37.3961 29.6877ZM37.8844 35.9377H62.1184L77.423 46.3748C83.0823 50.2341 86.7649 56.3296 87.5243 63.0984L90.5882 90.4543C90.6398 90.9012 90.4992 91.333 90.1976 91.6689C89.8929 92.0049 89.4774 92.1877 89.0227 92.1877H10.977C10.5239 92.1877 10.1037 92.0049 9.80211 91.6689C9.49898 91.333 9.36148 90.9012 9.41148 90.4543L12.4754 63.0984C13.2333 56.3281 16.9158 50.2341 22.5768 46.3748L37.8844 35.9377ZM51.8523 43.0453L50.7079 44.1897C49.4109 45.4859 48.6859 47.1282 48.4648 48.8253L47.4883 51.1813L46.3835 48.514L45.2391 49.6584C43.9421 50.9546 43.2171 52.5969 42.9961 54.2941L42.0195 56.65L40.9148 53.9828L39.7704 55.1272C36.6432 58.2524 36.6438 63.3684 39.7704 66.495L41.0033 67.7249L34.8326 73.8955C34.6827 74.0395 34.5629 74.2119 34.4805 74.4028C34.398 74.5936 34.3544 74.799 34.3523 75.0068C34.3502 75.2147 34.3896 75.4209 34.4681 75.6134C34.5467 75.8059 34.6629 75.9807 34.8099 76.1277C34.9569 76.2747 35.1318 76.3909 35.3242 76.4695C35.5167 76.548 35.7229 76.5874 35.9308 76.5853C36.1386 76.5832 36.344 76.5396 36.5348 76.4571C36.7257 76.3747 36.8981 76.2549 37.0421 76.105L43.2127 69.9343L44.3602 71.0818C47.4854 74.2089 52.6014 74.2084 55.728 71.0818L56.4147 70.3951H55.7677C56.0659 70.3946 56.3577 70.3088 56.6087 70.1478C56.8597 69.9868 57.0594 69.7574 57.1842 69.4866C57.309 69.2158 57.3537 68.9149 57.3131 68.6195C57.2724 68.3241 57.1481 68.0465 56.9548 67.8195C58.511 67.5387 60.0002 66.8096 61.1968 65.613L61.8834 64.9264H61.2364C61.5346 64.9259 61.8264 64.8401 62.0774 64.6791C62.3284 64.5181 62.5281 64.2886 62.6529 64.0178C62.7777 63.747 62.8225 63.4462 62.7818 63.1508C62.7412 62.8554 62.6169 62.5778 62.4236 62.3507C63.9797 62.0699 65.469 61.3408 66.6655 60.1443L67.3522 59.4576H66.7052C67.0141 59.4575 67.3161 59.3658 67.573 59.1941C67.8299 59.0224 68.0301 58.7784 68.1483 58.493C68.2665 58.2075 68.2975 57.8934 68.2372 57.5904C68.177 57.2873 68.0283 57.009 67.8099 56.7904L65.5211 54.5016C63.593 52.5723 60.9316 51.9813 58.4227 52.4325C58.8734 49.9242 58.2791 47.2627 56.3506 45.3341L54.0617 43.0453L52.957 45.7125L51.8523 43.0453ZM52.957 46.3595L54.1411 47.5436C56.0739 49.4764 56.0733 52.5583 54.1411 54.4894L54.1014 54.5321L52.9173 53.348C50.9846 51.4152 50.9851 48.3302 52.9173 46.3992L52.957 46.3595ZM47.4883 51.8282L48.6723 53.0123C50.6051 54.9451 50.6046 58.0271 48.6723 59.9581L48.6327 60.0009L47.4486 58.8168C45.5158 56.884 45.5164 53.799 47.4486 51.8679L47.4883 51.8282ZM59.8387 55.2615C61.0927 55.2615 62.3461 55.7449 63.3116 56.7111L64.4957 57.8951L64.456 57.9348C62.5232 59.8676 59.4382 59.87 57.5072 57.9379V57.9348L56.3231 56.7507L56.3628 56.7111C57.3292 55.7447 58.5848 55.2615 59.8387 55.2615ZM42.0195 57.297L43.2036 58.4811C45.1364 60.4139 45.1358 63.4958 43.2036 65.4269L43.1639 65.4696L41.9798 64.2855C40.047 62.3527 40.0476 59.2677 41.9798 57.3367L42.0195 57.297ZM52.9662 57.8158L52.9967 57.8463C53.0067 57.8556 53.0169 57.8648 53.0272 57.8738L53.0333 57.8799C53.0363 57.8829 53.0394 57.886 53.0425 57.889C53.013 57.894 52.9833 57.896 52.954 57.9012C52.9591 57.8729 52.9613 57.8442 52.9662 57.8158ZM54.37 60.7302C55.6239 60.7302 56.8774 61.2137 57.8429 62.1798L59.027 63.3639L58.9873 63.4036C57.0545 65.3364 53.9695 65.3388 52.0384 63.4066V63.4036L50.8544 62.2195L50.894 62.1798C51.8604 61.2134 53.116 60.7302 54.37 60.7302ZM47.4974 63.2845L47.5279 63.3151C47.538 63.3244 47.5482 63.3335 47.5585 63.3425L47.5646 63.3486C47.5676 63.3517 47.5706 63.3548 47.5737 63.3578C47.5443 63.3628 47.5146 63.3647 47.4852 63.37C47.4903 63.3416 47.4926 63.313 47.4974 63.2845ZM48.9012 66.199C50.1552 66.199 51.4086 66.6824 52.3741 67.6486L53.5582 68.8326L53.5185 68.8723C51.5857 70.8051 48.5007 70.8075 46.5697 68.8754V68.8723L45.3856 67.6882L45.4253 67.6486C46.3917 66.6822 47.6473 66.199 48.9012 66.199ZM14.0624 82.8127C13.1999 82.8127 12.4999 83.5127 12.4999 84.3752V87.5002C12.4999 88.3627 13.1999 89.0627 14.0624 89.0627C14.9249 89.0627 15.6249 88.3627 15.6249 87.5002V84.3752C15.6249 83.5127 14.9249 82.8127 14.0624 82.8127ZM21.8749 82.8127C21.0124 82.8127 20.3124 83.5127 20.3124 84.3752V87.5002C20.3124 88.3627 21.0124 89.0627 21.8749 89.0627C22.7374 89.0627 23.4374 88.3627 23.4374 87.5002V84.3752C23.4374 83.5127 22.7374 82.8127 21.8749 82.8127ZM29.6874 82.8127C28.8249 82.8127 28.1249 83.5127 28.1249 84.3752V87.5002C28.1249 88.3627 28.8249 89.0627 29.6874 89.0627C30.5499 89.0627 31.2499 88.3627 31.2499 87.5002V84.3752C31.2499 83.5127 30.5499 82.8127 29.6874 82.8127ZM37.4999 82.8127C36.6374 82.8127 35.9374 83.5127 35.9374 84.3752V87.5002C35.9374 88.3627 36.6374 89.0627 37.4999 89.0627C38.3624 89.0627 39.0624 88.3627 39.0624 87.5002V84.3752C39.0624 83.5127 38.3624 82.8127 37.4999 82.8127ZM45.3124 82.8127C44.4499 82.8127 43.7499 83.5127 43.7499 84.3752V87.5002C43.7499 88.3627 44.4499 89.0627 45.3124 89.0627C46.1749 89.0627 46.8749 88.3627 46.8749 87.5002V84.3752C46.8749 83.5127 46.1749 82.8127 45.3124 82.8127ZM54.6874 82.8127C53.8249 82.8127 53.1249 83.5127 53.1249 84.3752V87.5002C53.1249 88.3627 53.8249 89.0627 54.6874 89.0627C55.5499 89.0627 56.2499 88.3627 56.2499 87.5002V84.3752C56.2499 83.5127 55.5499 82.8127 54.6874 82.8127ZM62.4999 82.8127C61.6374 82.8127 60.9374 83.5127 60.9374 84.3752V87.5002C60.9374 88.3627 61.6374 89.0627 62.4999 89.0627C63.3624 89.0627 64.0624 88.3627 64.0624 87.5002V84.3752C64.0624 83.5127 63.3624 82.8127 62.4999 82.8127ZM70.3124 82.8127C69.4499 82.8127 68.7499 83.5127 68.7499 84.3752V87.5002C68.7499 88.3627 69.4499 89.0627 70.3124 89.0627C71.1749 89.0627 71.8749 88.3627 71.8749 87.5002V84.3752C71.8749 83.5127 71.1749 82.8127 70.3124 82.8127ZM78.1249 82.8127C77.2624 82.8127 76.5624 83.5127 76.5624 84.3752V87.5002C76.5624 88.3627 77.2624 89.0627 78.1249 89.0627C78.9874 89.0627 79.6874 88.3627 79.6874 87.5002V84.3752C79.6874 83.5127 78.9874 82.8127 78.1249 82.8127ZM85.9374 82.8127C85.0749 82.8127 84.3749 83.5127 84.3749 84.3752V87.5002C84.3749 88.3627 85.0749 89.0627 85.9374 89.0627C86.7999 89.0627 87.4999 88.3627 87.4999 87.5002V84.3752C87.4999 83.5127 86.7999 82.8127 85.9374 82.8127Z" fill="#1F4328"/>
</svg>
