<svg width="100" height="100" viewBox="0 0 100 100" fill="none" xmlns="http://www.w3.org/2000/svg">
<path d="M69.5279 0H30.4717C26.1639 0 22.6592 3.50469 22.6592 7.8125V90.6219C22.6592 94.3938 25.3482 97.5516 28.9092 98.275V98.4375C28.9092 99.3016 29.6076 100 30.4717 100C31.3357 100 32.0342 99.3016 32.0342 98.4375V98.4344H67.9654V98.4375C67.9654 99.3016 68.6639 100 69.5279 100C70.392 100 71.0904 99.3016 71.0904 98.4375V98.275C74.6514 97.55 77.3404 94.3938 77.3404 90.6219V7.8125C77.3404 3.50469 73.8357 0 69.5279 0ZM25.7842 9.375H74.2154V50H25.7842V9.375ZM30.4717 3.125H69.5279C71.5623 3.125 73.2795 4.43594 73.9264 6.25H26.0732C26.7201 4.43594 28.4373 3.125 30.4717 3.125ZM69.5279 95.3094H30.4717C27.8873 95.3094 25.7842 93.2063 25.7842 90.6219V53.125H74.2154V90.6219C74.2154 93.2063 72.1123 95.3094 69.5279 95.3094Z" fill="#1F4328"/>
<path d="M42.1619 39.0625H31.2666C29.1119 39.0625 27.3604 40.8141 27.3604 42.9688C27.3604 45.1234 29.1119 46.875 31.2666 46.875H42.1619C44.3166 46.875 46.0682 45.1234 46.0682 42.9688C46.0682 40.8141 44.3166 39.0625 42.1619 39.0625ZM31.2682 43.75C30.8385 43.75 30.4869 43.3984 30.4869 42.9688C30.4869 42.5391 30.8385 42.1875 31.2682 42.1875H42.1635C42.5932 42.1875 42.9447 42.5391 42.9447 42.9688C42.9447 43.3984 42.5932 43.75 42.1635 43.75H31.2682Z" fill="#1F4328"/>
<path d="M42.1619 54.6875H31.2666C29.1119 54.6875 27.3604 56.4391 27.3604 58.5938C27.3604 60.7484 29.1119 62.5 31.2666 62.5H42.1619C44.3166 62.5 46.0682 60.7484 46.0682 58.5938C46.0682 56.4391 44.3166 54.6875 42.1619 54.6875ZM31.2682 59.375C30.8385 59.375 30.4869 59.0234 30.4869 58.5938C30.4869 58.1641 30.8385 57.8125 31.2682 57.8125H42.1635C42.5932 57.8125 42.9447 58.1641 42.9447 58.5938C42.9447 59.0234 42.5932 59.375 42.1635 59.375H31.2682Z" fill="#1F4328"/>
</svg>
