<svg width="100" height="100" viewBox="0 0 100 100" fill="none" xmlns="http://www.w3.org/2000/svg">
<path d="M25.0004 6.25C21.5671 6.25 18.7504 9.06667 18.7504 12.5V23.4375C18.7513 23.6803 18.8088 23.9196 18.9183 24.1364C16.9079 25.8588 15.6254 28.4092 15.6254 31.25V34.1125C15.5975 34.2813 15.5975 34.4535 15.6254 34.6222V80.9875C15.5975 81.1563 15.5975 81.3285 15.6254 81.4972V84.375C15.6254 89.5338 19.8416 93.75 25.0004 93.75H75.0004C80.1592 93.75 84.3754 89.5338 84.3754 84.375V81.5125C84.4033 81.3437 84.4033 81.1715 84.3754 81.0028V34.6375C84.4033 34.4687 84.4033 34.2965 84.3754 34.1278V31.25C84.3754 28.4092 83.0929 25.8588 81.0826 24.1364C81.1921 23.9196 81.2495 23.6803 81.2504 23.4375V12.5C81.2504 9.06667 78.4337 6.25 75.0004 6.25H25.0004ZM25.0004 9.375H75.0004C76.7452 9.375 78.1254 10.7552 78.1254 12.5V21.875H21.8754V12.5C21.8754 10.7552 23.2556 9.375 25.0004 9.375ZM26.5385 12.4786C26.1246 12.4851 25.7302 12.6555 25.4419 12.9525C25.1535 13.2494 24.9947 13.6486 25.0004 14.0625V17.1875C24.9975 17.3945 25.0357 17.6001 25.1129 17.7923C25.1902 17.9844 25.3048 18.1593 25.4502 18.3067C25.5955 18.4542 25.7688 18.5713 25.9598 18.6512C26.1508 18.7311 26.3558 18.7723 26.5629 18.7723C26.77 18.7723 26.975 18.7311 27.166 18.6512C27.357 18.5713 27.5303 18.4542 27.6757 18.3067C27.821 18.1593 27.9357 17.9844 28.0129 17.7923C28.0901 17.6001 28.1283 17.3945 28.1254 17.1875V14.0625C28.1283 13.8535 28.0892 13.646 28.0104 13.4523C27.9316 13.2586 27.8148 13.0828 27.6668 12.9351C27.5188 12.7874 27.3427 12.6709 27.1489 12.5925C26.9551 12.5141 26.7475 12.4754 26.5385 12.4786ZM34.351 12.4786C33.9371 12.4851 33.5427 12.6555 33.2544 12.9525C32.966 13.2494 32.8072 13.6486 32.8129 14.0625V17.1875C32.81 17.3945 32.8482 17.6001 32.9254 17.7923C33.0027 17.9844 33.1173 18.1593 33.2627 18.3067C33.408 18.4542 33.5813 18.5713 33.7723 18.6512C33.9633 18.7311 34.1683 18.7723 34.3754 18.7723C34.5825 18.7723 34.7875 18.7311 34.9785 18.6512C35.1695 18.5713 35.3428 18.4542 35.4882 18.3067C35.6335 18.1593 35.7482 17.9844 35.8254 17.7923C35.9026 17.6001 35.9408 17.3945 35.9379 17.1875V14.0625C35.9408 13.8535 35.9017 13.646 35.8229 13.4523C35.7441 13.2586 35.6273 13.0828 35.4793 12.9351C35.3313 12.7874 35.1552 12.6709 34.9614 12.5925C34.7676 12.5141 34.56 12.4754 34.351 12.4786ZM42.1635 12.4786C41.7496 12.4851 41.3552 12.6555 41.0669 12.9525C40.7785 13.2494 40.6197 13.6486 40.6254 14.0625V17.1875C40.6225 17.3945 40.6607 17.6001 40.7379 17.7923C40.8152 17.9844 40.9298 18.1593 41.0752 18.3067C41.2205 18.4542 41.3938 18.5713 41.5848 18.6512C41.7758 18.7311 41.9808 18.7723 42.1879 18.7723C42.395 18.7723 42.6 18.7311 42.791 18.6512C42.982 18.5713 43.1553 18.4542 43.3007 18.3067C43.446 18.1593 43.5607 17.9844 43.6379 17.7923C43.7151 17.6001 43.7533 17.3945 43.7504 17.1875V14.0625C43.7533 13.8535 43.7142 13.646 43.6354 13.4523C43.5566 13.2586 43.4398 13.0828 43.2918 12.9351C43.1438 12.7874 42.9677 12.6709 42.7739 12.5925C42.5801 12.5141 42.3725 12.4754 42.1635 12.4786ZM49.976 12.4786C49.5621 12.4851 49.1677 12.6555 48.8794 12.9525C48.591 13.2494 48.4322 13.6486 48.4379 14.0625V17.1875C48.435 17.3945 48.4732 17.6001 48.5504 17.7923C48.6277 17.9844 48.7423 18.1593 48.8877 18.3067C49.033 18.4542 49.2063 18.5713 49.3973 18.6512C49.5883 18.7311 49.7933 18.7723 50.0004 18.7723C50.2075 18.7723 50.4125 18.7311 50.6035 18.6512C50.7945 18.5713 50.9678 18.4542 51.1132 18.3067C51.2585 18.1593 51.3732 17.9844 51.4504 17.7923C51.5276 17.6001 51.5658 17.3945 51.5629 17.1875V14.0625C51.5658 13.8535 51.5267 13.646 51.4479 13.4523C51.3691 13.2586 51.2523 13.0828 51.1043 12.9351C50.9563 12.7874 50.7802 12.6709 50.5864 12.5925C50.3926 12.5141 50.185 12.4754 49.976 12.4786ZM57.7885 12.4786C57.3746 12.4851 56.9802 12.6555 56.6919 12.9525C56.4035 13.2494 56.2447 13.6486 56.2504 14.0625V17.1875C56.2475 17.3945 56.2857 17.6001 56.3629 17.7923C56.4402 17.9844 56.5548 18.1593 56.7002 18.3067C56.8455 18.4542 57.0188 18.5713 57.2098 18.6512C57.4008 18.7311 57.6058 18.7723 57.8129 18.7723C58.02 18.7723 58.225 18.7311 58.416 18.6512C58.607 18.5713 58.7803 18.4542 58.9257 18.3067C59.071 18.1593 59.1857 17.9844 59.2629 17.7923C59.3401 17.6001 59.3783 17.3945 59.3754 17.1875V14.0625C59.3783 13.8535 59.3392 13.646 59.2604 13.4523C59.1816 13.2586 59.0648 13.0828 58.9168 12.9351C58.7688 12.7874 58.5927 12.6709 58.3989 12.5925C58.2051 12.5141 57.9975 12.4754 57.7885 12.4786ZM65.601 12.4786C65.1871 12.4851 64.7927 12.6555 64.5044 12.9525C64.216 13.2494 64.0572 13.6486 64.0629 14.0625V17.1875C64.06 17.3945 64.0982 17.6001 64.1754 17.7923C64.2527 17.9844 64.3673 18.1593 64.5127 18.3067C64.6581 18.4542 64.8313 18.5713 65.0223 18.6512C65.2133 18.7311 65.4183 18.7723 65.6254 18.7723C65.8325 18.7723 66.0375 18.7311 66.2285 18.6512C66.4195 18.5713 66.5928 18.4542 66.7382 18.3067C66.8835 18.1593 66.9982 17.9844 67.0754 17.7923C67.1526 17.6001 67.1908 17.3945 67.1879 17.1875V14.0625C67.1908 13.8535 67.1517 13.646 67.0729 13.4523C66.9941 13.2586 66.8773 13.0828 66.7293 12.9351C66.5813 12.7874 66.4052 12.6709 66.2114 12.5925C66.0176 12.5141 65.81 12.4754 65.601 12.4786ZM73.4135 12.4786C72.9996 12.4851 72.6052 12.6555 72.3169 12.9525C72.0285 13.2494 71.8697 13.6486 71.8754 14.0625V17.1875C71.8725 17.3945 71.9107 17.6001 71.9879 17.7923C72.0652 17.9844 72.1798 18.1593 72.3252 18.3067C72.4705 18.4542 72.6438 18.5713 72.8348 18.6512C73.0258 18.7311 73.2308 18.7723 73.4379 18.7723C73.645 18.7723 73.85 18.7311 74.041 18.6512C74.232 18.5713 74.4053 18.4542 74.5507 18.3067C74.696 18.1593 74.8107 17.9844 74.8879 17.7923C74.9651 17.6001 75.0033 17.3945 75.0004 17.1875V14.0625C75.0033 13.8535 74.9642 13.646 74.8854 13.4523C74.8066 13.2586 74.6898 13.0828 74.5418 12.9351C74.3938 12.7874 74.2177 12.6709 74.0239 12.5925C73.8301 12.5141 73.6225 12.4754 73.4135 12.4786ZM25.0004 25H75.0004C78.4697 25 81.2504 27.7807 81.2504 31.25V32.8125H35.9379C35.7309 32.8096 35.5253 32.8478 35.3332 32.925C35.141 33.0022 34.9661 33.1169 34.8187 33.2622C34.6712 33.4076 34.5541 33.5809 34.4742 33.7719C34.3943 33.9629 34.3532 34.1679 34.3532 34.375C34.3532 34.5821 34.3943 34.7871 34.4742 34.9781C34.5541 35.1691 34.6712 35.3424 34.8187 35.4878C34.9661 35.6331 35.141 35.7478 35.3332 35.825C35.5253 35.9022 35.7309 35.9404 35.9379 35.9375H81.2504V79.6875H18.7504V35.9375H28.1254C28.3325 35.9404 28.538 35.9022 28.7302 35.825C28.9223 35.7478 29.0972 35.6331 29.2446 35.4878C29.3921 35.3424 29.5092 35.1691 29.5891 34.9781C29.669 34.7871 29.7102 34.5821 29.7102 34.375C29.7102 34.1679 29.669 33.9629 29.5891 33.7719C29.5092 33.5809 29.3921 33.4076 29.2446 33.2622C29.0972 33.1169 28.9223 33.0022 28.7302 32.925C28.538 32.8478 28.3325 32.8096 28.1254 32.8125H18.7504V31.25C18.7504 27.7807 21.5311 25 25.0004 25ZM54.6635 39.0411C54.2496 39.0476 53.8552 39.218 53.5669 39.515C53.2785 39.8119 53.1197 40.2111 53.1254 40.625V44.0582C51.8867 43.2495 50.5893 42.6555 49.2741 42.3767C47.0625 41.9079 44.7074 42.3272 43.076 43.9575C43.076 43.9585 43.076 43.9596 43.076 43.9606C41.3196 45.7169 39.5265 47.976 37.772 50.473C37.6973 50.5622 37.6329 50.6594 37.5798 50.7629C34.852 54.6795 32.2462 59.1212 30.0175 63.2111C29.9497 63.3091 29.8934 63.4146 29.8497 63.5254C28.0082 66.9189 26.4189 70.0514 25.3086 72.3053C24.7252 73.4909 25.0618 74.8839 25.8702 75.6927C26.6786 76.5015 28.0715 76.8372 29.2576 76.2543C33.0163 74.4031 39.1514 71.2539 45.0444 67.6788C45.1551 67.6281 45.2596 67.5646 45.3556 67.4896C46.506 66.7877 47.6343 66.0684 48.7431 65.3412C48.9737 66.4286 49.317 67.3909 49.7532 68.2373C49.403 68.288 49.0804 68.456 48.8381 68.714C48.5959 68.9719 48.4483 69.3044 48.4196 69.6571C48.3909 70.0097 48.4827 70.3617 48.6801 70.6554C48.8774 70.9491 49.1686 71.1671 49.506 71.2738L51.0136 71.7773L50.4582 72.3328C50.3082 72.4767 50.1885 72.6492 50.106 72.84C50.0235 73.0308 49.98 73.2362 49.9778 73.4441C49.9757 73.652 50.0151 73.8582 50.0937 74.0506C50.1723 74.2431 50.2885 74.418 50.4355 74.5649C50.5825 74.712 50.7573 74.8281 50.9498 74.9067C51.1422 74.9853 51.3484 75.0247 51.5563 75.0226C51.7642 75.0205 51.9696 74.9769 52.1604 74.8944C52.3512 74.8119 52.5237 74.6922 52.6676 74.5422L53.2231 73.9868L53.7266 75.4944C53.8357 75.8537 54.0706 76.1617 54.3882 76.362C54.7058 76.5624 55.0849 76.6416 55.4562 76.5853C55.8275 76.529 56.1661 76.3409 56.41 76.0553C56.6539 75.7698 56.7868 75.406 56.7845 75.0305C58.3819 75.8628 60.3419 76.5625 62.5004 76.5625C67.6902 76.5625 70.7864 73.7678 72.1348 70.6696C73.4832 67.5714 73.4379 64.2297 73.4379 62.5C73.4379 59.5052 73.8151 57.7186 74.1398 56.7444C74.3022 56.2573 74.4501 55.971 74.5335 55.8319C74.6169 55.6928 74.5426 55.7922 74.5426 55.7922C74.8356 55.4992 75.0001 55.1018 75.0001 54.6875C75.0001 54.2732 74.8356 53.8758 74.5426 53.5828L72.9801 52.0203L71.4176 50.4578C71.2697 50.3097 71.0935 50.1929 70.8995 50.1143C70.7056 50.0357 70.4978 49.9968 70.2885 50C69.8826 50.0065 69.4952 50.1706 69.2082 50.4578C69.2082 50.4578 69.3076 50.3834 69.1685 50.4669C69.0294 50.5504 68.7431 50.6982 68.256 50.8606C67.2818 51.1853 65.4952 51.5625 62.5004 51.5625C61.6534 51.5625 60.4145 51.5556 59.0123 51.7029C58.7111 50.5914 58.2094 49.492 57.526 48.4375H60.9379C61.145 48.4404 61.3505 48.4022 61.5427 48.325C61.7348 48.2478 61.9097 48.1331 62.0571 47.9878C62.2046 47.8424 62.3217 47.6691 62.4016 47.4781C62.4815 47.2871 62.5227 47.0821 62.5227 46.875C62.5227 46.6679 62.4815 46.4629 62.4016 46.2719C62.3217 46.0809 62.2046 45.9076 62.0571 45.7622C61.9097 45.6169 61.7348 45.5022 61.5427 45.425C61.3505 45.3478 61.145 45.3096 60.9379 45.3125H58.4599L60.4801 43.2922C60.6301 43.1483 60.7498 42.9758 60.8323 42.785C60.9148 42.5942 60.9584 42.3888 60.9605 42.1809C60.9626 41.973 60.9232 41.7668 60.8446 41.5744C60.7661 41.3819 60.6499 41.207 60.5029 41.06C60.3559 40.913 60.181 40.7969 59.9886 40.7183C59.7961 40.6397 59.5899 40.6003 59.382 40.6024C59.1741 40.6045 58.9688 40.6481 58.7779 40.7306C58.5871 40.8131 58.4147 40.9328 58.2707 41.0828L56.2504 43.103V40.625C56.2533 40.416 56.2142 40.2085 56.1354 40.0148C56.0566 39.8211 55.9398 39.6453 55.7918 39.4976C55.6438 39.3499 55.4677 39.2334 55.2739 39.155C55.0801 39.0766 54.8725 39.0379 54.6635 39.0411ZM47.5956 45.3033C47.9155 45.3108 48.2573 45.3538 48.6241 45.4315C50.091 45.7424 51.827 46.6996 53.3451 48.2178C54.6786 49.5512 55.4033 50.9963 55.8018 52.3376C55.3098 52.4863 54.818 52.6536 54.3309 52.8656C53.8128 53.0911 53.3127 53.3861 52.8233 53.7109C52.3363 54.0081 51.859 54.3384 51.4164 54.7546C50.7392 55.3915 50.175 56.1852 49.7258 57.1045C49.0376 58.3791 48.5941 59.9158 48.4898 61.7218C47.2377 62.5766 45.9225 63.4209 44.5866 64.2517L41.7301 61.3953C41.5845 61.2456 41.4104 61.1266 41.218 61.0454C41.0257 60.9641 40.819 60.9223 40.6102 60.9222C40.2993 60.9223 39.9956 61.0151 39.7377 61.1887C39.4799 61.3623 39.2797 61.6089 39.1628 61.8969C39.0458 62.1849 39.0174 62.5012 39.0811 62.8054C39.1449 63.1096 39.2979 63.3879 39.5207 63.6047L41.8248 65.9088C36.8094 68.8744 31.7577 71.5164 28.3818 73.1873C29.2545 71.4253 30.3985 69.1843 31.7112 66.7328C31.855 66.8829 32.0273 67.0029 32.218 67.0856C32.4087 67.1683 32.614 67.2122 32.8219 67.2146C33.0297 67.217 33.236 67.1779 33.4285 67.0996C33.6211 67.0213 33.7961 66.9053 33.9433 66.7585C34.0905 66.6117 34.2069 66.437 34.2858 66.2447C34.3646 66.0523 34.4043 65.8462 34.4025 65.6383C34.4007 65.4305 34.3574 65.225 34.2752 65.0341C34.193 64.8432 34.0735 64.6706 33.9237 64.5264L33.2768 63.8702C35.1104 60.5653 37.1589 57.1178 39.2521 53.9612L41.0832 55.7922C41.2272 55.9422 41.3996 56.0619 41.5904 56.1444C41.7813 56.2269 41.9866 56.2705 42.1945 56.2726C42.4024 56.2747 42.6086 56.2353 42.8011 56.1567C42.9935 56.0781 43.1684 55.962 43.3154 55.815C43.4624 55.668 43.5786 55.4931 43.6571 55.3006C43.7357 55.1082 43.7751 54.902 43.773 54.6941C43.7709 54.4862 43.7273 54.2808 43.6448 54.09C43.5623 53.8992 43.4426 53.7267 43.2926 53.5828L41.0496 51.3397C42.4929 49.3324 43.929 47.5264 45.2854 46.17C45.6822 45.7735 46.1489 45.5097 46.7015 45.3857C46.9777 45.3238 47.2757 45.2958 47.5956 45.3033ZM70.023 53.4821L70.7707 54.2297L71.5184 54.9774C71.4013 55.2337 71.2896 55.4073 71.1735 55.7556C70.717 57.1251 70.3129 59.2448 70.3129 62.5C70.3129 64.2297 70.2676 67.1375 69.2723 69.4244C68.2769 71.7114 66.6857 73.4375 62.5004 73.4375C59.0855 73.4375 55.4657 70.372 55.1182 70.0714C55.1162 70.0694 55.1141 70.0673 55.1121 70.0653C55.0392 69.9805 54.9573 69.9038 54.868 69.8364C52.9446 67.9117 51.5965 66.4792 51.569 62.6129C51.5693 62.5946 51.5693 62.5763 51.569 62.558C51.5643 62.4343 51.5629 62.4204 51.5629 62.5C51.5629 62.0494 51.5915 61.6417 51.6301 61.2488C51.6455 61.1009 51.664 60.9553 51.685 60.8154C51.709 60.6449 51.7421 60.4898 51.7735 60.3302C52.088 58.8225 52.735 57.8031 53.5557 57.0312C54.425 56.2137 55.5604 55.6654 56.7784 55.3101C56.7966 55.3047 56.815 55.3 56.8333 55.2948C57.1158 55.2139 57.4049 55.1546 57.6939 55.0934C59.461 54.727 61.2759 54.6875 62.5004 54.6875C65.7556 54.6875 67.8753 54.2834 69.2448 53.8269C69.5931 53.7108 69.7667 53.5991 70.023 53.4821ZM18.7504 82.8125H81.2504V84.375C81.2504 87.8443 78.4697 90.625 75.0004 90.625H25.0004C21.5311 90.625 18.7504 87.8443 18.7504 84.375V82.8125Z" fill="#132A19"/>
</svg>
