<svg width="100" height="100" viewBox="0 0 100 100" fill="none" xmlns="http://www.w3.org/2000/svg">
<path d="M53.125 50C53.125 39.6609 44.7141 31.25 34.375 31.25C24.0359 31.25 15.625 39.6609 15.625 50C15.625 60.3391 24.0359 68.75 34.375 68.75C44.7141 68.75 53.125 60.3391 53.125 50ZM18.75 50C18.75 41.3844 25.7594 34.375 34.375 34.375C42.9906 34.375 50 41.3844 50 50C50 58.6156 42.9906 65.625 34.375 65.625C25.7594 65.625 18.75 58.6156 18.75 50Z" fill="#225588"/>
<path d="M98.4375 37.4906H66.3828C61.3688 24.7062 48.9172 15.625 34.375 15.625C15.4203 15.625 0 31.0453 0 50C0 68.9547 15.4203 84.375 34.375 84.375H92.1875C96.4953 84.375 100 80.8703 100 76.5625C100 75.6984 99.3016 75 98.4375 75H98.3984C99.3891 73.6906 100 72.0781 100 70.3125C100 70.0953 99.9563 69.8891 99.8766 69.7016C99.6406 69.1406 99.0844 68.7469 98.4359 68.7469H98.3984C99.3906 67.4375 100 65.825 100 64.0594C100 63.1953 99.3016 62.4969 98.4375 62.4969H98.3984C99.3906 61.1875 100 59.575 100 57.8094C100 57.5922 99.9563 57.3859 99.8766 57.1984C99.6406 56.6375 99.0844 56.2437 98.4359 56.2437H98.3984C99.3906 54.9344 100 53.3219 100 51.5562C100 50.6922 99.3016 49.9938 98.4375 49.9938H98.3984C99.3906 48.6844 100 47.0719 100 45.3062C100 45.0891 99.9563 44.8828 99.8766 44.6953C99.6406 44.1344 99.0844 43.7406 98.4359 43.7406H98.3984C99.3906 42.4312 100 40.8187 100 39.0531C100 38.1891 99.3016 37.4906 98.4375 37.4906ZM3.125 50C3.125 32.7687 17.1437 18.75 34.375 18.75C47.7484 18.75 59.1531 27.2094 63.6047 39.0453C63.6047 39.0484 63.6031 39.05 63.6031 39.0531C63.6031 39.4172 63.7469 39.7375 63.9562 40.0016C65.0203 43.1453 65.625 46.5016 65.625 50C65.625 67.2313 51.6063 81.25 34.375 81.25C17.1437 81.25 3.125 67.2313 3.125 50ZM92.1875 81.25H48.6688C50.5812 80.3719 52.3984 79.325 54.1031 78.125H96.5859C95.9391 79.9391 94.2219 81.25 92.1875 81.25ZM57.9313 75C58.9734 74.0172 59.9609 72.9766 60.875 71.8719H96.5875C95.9406 73.6875 94.2234 75 92.1875 75H57.9313ZM63.1656 68.7469C63.8234 67.7391 64.4297 66.6969 64.9797 65.6219H96.5875C95.9406 67.4359 94.2219 68.7469 92.1891 68.7469H63.1656ZM66.3875 62.4969C66.7875 61.4766 67.1375 60.4344 67.4406 59.3687H96.5875C95.9406 61.1844 94.2219 62.4969 92.1875 62.4969H66.3875ZM68.1719 56.2437C68.3609 55.2172 68.5062 54.175 68.6016 53.1187H96.5859C95.9391 54.9328 94.2203 56.2437 92.1875 56.2437H68.1719ZM68.75 49.9938C68.75 48.9391 68.6953 47.8969 68.6 46.8656H96.5875C95.9406 48.6812 94.2219 49.9938 92.1875 49.9938H68.75ZM68.1687 43.7406C67.9734 42.6812 67.7281 41.6391 67.4375 40.6156H96.5859C95.9391 42.4297 94.2203 43.7406 92.1875 43.7406H68.1687Z" fill="#225588"/>
</svg>
