<svg width="100" height="100" viewBox="0 0 100 100" fill="none" xmlns="http://www.w3.org/2000/svg">
<path d="M78.3781 6.28688C78.2036 6.304 78.0324 6.34003 77.8654 6.39369C77.1974 6.60831 76.6186 7.10412 76.367 7.79444C76.367 7.79546 76.367 7.79648 76.367 7.7975C75.9671 8.9033 75.2985 9.92851 74.6519 11.2704C74.0052 12.6123 73.4373 14.2852 73.4373 16.4401C73.4373 18.7796 74.2482 20.5301 75.3477 21.6189C65.5397 24.6232 57.2846 28.2909 50.3874 32.3855C50.841 30.8459 51.2104 28.8721 51.4036 26.5322C53.7656 26.4362 56.0326 25.8182 57.8031 24.3838C59.7316 22.8215 60.9251 20.3079 60.9251 17.1603C60.9251 15.8708 60.6712 14.8012 60.4704 14.136C60.1667 13.1298 59.1564 12.4195 58.1053 12.4789C58.1042 12.4789 58.1032 12.4789 58.1022 12.4789C57.1803 12.532 55.4717 12.6514 53.7565 13.2846C53.1489 12.1187 52.308 11.1579 51.4128 10.4251C49.683 9.00923 47.7655 8.28511 46.5849 7.91957C45.1918 7.48847 43.6868 8.4858 43.5453 9.93678C43.4475 10.9394 43.1742 11.6305 42.8465 12.6651C42.5187 13.6996 42.1873 15.025 42.1873 16.8795C42.1873 17.0169 42.2087 17.1422 42.2148 17.2763C39.2396 17.6738 37.2966 19.5583 36.5141 20.4623C35.9215 21.1467 35.7762 22.163 36.154 22.9861C36.4802 23.6996 37.1407 24.9261 38.3451 26.0379C39.5509 27.1509 41.3679 28.1253 43.6918 28.1253C45.546 28.1253 46.9815 27.6638 48.1382 27.0693C47.8488 29.6146 47.3872 31.7111 46.8778 33.0081C46.1992 34.736 45.6755 35.3244 45.6755 35.3244C45.6406 35.3664 45.608 35.4102 45.5778 35.4556C43.7575 36.7039 42.0444 37.9844 40.4386 39.2886C40.0589 36.4982 39.1641 34.7391 38.4886 33.8015C38.1311 33.3046 37.5735 32.9803 36.9749 32.8738C36.3763 32.7673 35.7368 32.8794 35.2171 33.2583C34.0804 34.0877 31.8595 36.0205 30.6089 39.1146C30.4219 39.0132 30.2355 38.9102 30.0474 38.8247C27.896 37.8474 25.6225 37.5946 24.3772 37.5064C24.3762 37.5064 24.3752 37.5064 24.3742 37.5064C23.0415 37.4144 21.8748 38.5297 21.8748 39.8471V42.554C21.8748 45.9487 22.7914 48.4169 24.6183 49.8568C25.8039 50.7913 27.2147 51.2041 28.726 51.398C26.0209 55.0827 21.4837 62.1909 19.1435 71.2893C17.6006 77.2844 17.1873 82.8967 17.1873 92.1878C17.1844 92.3948 17.2226 92.6004 17.2998 92.7925C17.377 92.9846 17.4917 93.1595 17.637 93.307C17.7824 93.4544 17.9557 93.5715 18.1467 93.6514C18.3377 93.7314 18.5427 93.7725 18.7498 93.7725C18.9569 93.7725 19.1619 93.7314 19.3529 93.6514C19.5439 93.5715 19.7172 93.4544 19.8625 93.307C20.0079 93.1595 20.1226 92.9846 20.1998 92.7925C20.277 92.6004 20.3152 92.3948 20.3123 92.1878C20.3123 89.6373 20.3559 87.4365 20.4313 85.4006C20.4495 85.3737 20.4668 85.3462 20.4832 85.3182C20.4832 85.3182 21.7257 83.2593 24.9815 81.0427C27.4713 79.3476 31.095 77.6334 36.1448 76.9168C36.2284 77.5016 36.3882 78.2363 36.7216 79.1232C37.5364 81.2907 39.3911 83.8638 42.8404 84.6285C44.3957 84.9729 45.9286 85.4695 46.887 85.8065V85.8035C48.4396 86.3515 50.07 84.9873 49.9967 83.4292V83.4262C49.8787 80.9343 49.3427 78.894 48.3457 77.3348C50.7392 77.7292 53.3648 78.1253 57.031 78.1253C60.9216 78.1253 63.6373 77.3172 65.7194 76.5078C65.8049 77.3176 66.0116 78.5006 66.8058 79.9502C68.0066 82.1418 70.6719 84.3753 75.1066 84.3753H80.4533C81.9235 84.3753 83.1149 82.9223 82.7391 81.4608C82.3554 79.9676 81.5072 77.2034 79.5652 74.9636C80.9905 73.2486 81.6523 71.4073 82.3759 70.4013H82.3728C83.2357 69.2033 82.66 67.3946 81.3047 66.8765C81.3037 66.8765 81.3027 66.8765 81.3017 66.8765C79.9831 66.3754 77.656 65.6253 75.0669 65.6253C74.7221 65.6253 74.4087 65.6663 74.0843 65.6924C72.7553 62.7489 70.3284 60.7773 68.9665 59.8056C68.3562 59.3709 67.5989 59.3041 66.9309 59.5187C66.263 59.7333 65.6842 60.2291 65.4325 60.9194C65.4315 60.9205 65.4305 60.9215 65.4295 60.9225C65.0288 62.0286 64.3644 63.0534 63.7174 64.3954C63.0706 65.7373 62.4998 67.4102 62.4998 69.5651C62.4998 71.415 63.0147 72.8839 63.7693 73.9627C62.0493 74.5137 59.8154 75.0003 57.031 75.0003C53.3477 75.0003 50.7535 74.5508 48.2084 74.1305C48.3449 74.021 48.4797 73.9094 48.599 73.7887C50.1932 72.1769 50.9712 70.2225 51.4585 68.6557C51.9221 67.1677 50.7123 65.6253 49.1972 65.6253H44.4761C42.2272 65.6253 40.0177 66.1946 38.4001 67.7798C37.0086 69.1433 36.268 71.2125 36.0746 73.7857C30.3618 74.5445 26.1307 76.4787 23.2237 78.4579C22.2528 79.1189 21.4359 79.7853 20.7365 80.4171C21.0216 77.4162 21.4717 74.7872 22.1708 72.0706C24.893 61.4872 30.6157 53.9225 32.44 51.6848C33.6673 52.3502 35.5898 53.1253 38.2139 53.1253C43.0283 53.1253 45.6207 50.0484 46.5574 48.4439C47.2256 47.3004 46.7767 45.7539 45.5534 45.1754C45.5513 45.1754 45.5493 45.1754 45.5473 45.1754C44.4361 44.6533 43.1135 43.4127 41.2107 42.7066C43.285 40.9404 45.5466 39.2099 48.0284 37.5369C49.5269 37.6026 54.1627 37.8974 58.6698 39.2367C57.3819 40.3346 56.2498 42.193 56.2498 44.7817C56.2498 48.7433 58.008 51.2659 59.1337 52.4203C60.1047 53.4141 61.8466 53.2481 62.6646 52.2067C63.4113 51.2549 64.5231 50.2676 65.4814 49.0298C66.2063 49.517 67.0349 49.9098 67.9991 50.1437C69.6889 50.5532 70.9607 51.0304 71.7466 51.3705C71.7476 51.3715 71.7487 51.3725 71.7497 51.3735C73.2758 52.0309 75.0341 50.7442 74.9998 49.1397C74.9998 49.1386 74.9998 49.1376 74.9998 49.1366C74.912 45.4277 74.4786 42.591 72.9246 40.5001C75.3375 38.2047 76.2233 35.9727 76.5074 34.6926C76.5074 34.6916 76.5074 34.6906 76.5074 34.6896C76.7712 33.4913 76.0018 32.197 74.774 31.9003C73.7714 31.6579 71.955 31.2503 70.2421 31.2503C66.6946 31.2503 64.4213 33.2014 63.339 35.0497C62.7057 36.1314 62.648 36.6897 62.5639 37.2622C59.2118 35.8142 55.4498 35.0901 52.487 34.7323C59.1748 30.8021 67.2107 27.2662 76.84 24.3685C77.008 25.1026 77.2574 25.942 77.7372 26.8222C78.9317 29.0132 81.5869 31.2503 86.0044 31.2503C89.1199 31.2503 91.3684 30.3693 92.4467 29.8342L92.4497 29.8312C93.4318 29.3444 93.9626 28.1477 93.6582 27.0938C93.3237 25.9338 92.5021 23.5671 90.6278 21.6036C90.7727 21.4272 90.9232 21.254 91.0551 21.0696C92.6501 18.8399 93.4453 16.112 93.7345 13.5958L93.7315 13.5989C93.9182 12.0056 92.3417 10.5452 90.7316 11.0385C88.8059 11.6316 86.7753 11.762 84.8081 12.1127C83.4385 9.41879 81.1939 7.60108 79.904 6.68055C79.903 6.68055 79.9019 6.68055 79.9009 6.68055C79.4433 6.3546 78.9015 6.23552 78.3781 6.28688ZM78.8145 9.87269C79.7418 10.6247 80.7063 11.7194 81.5367 13.0648C81.1656 13.2347 80.8003 13.4237 80.4441 13.6508C80.4389 13.654 80.431 13.6566 80.4258 13.6599C80.3304 13.7211 80.2537 13.7868 80.1634 13.8491C80.0173 13.9509 79.8675 14.0505 79.7331 14.1574C78.7393 14.9319 78.1259 15.7715 77.6945 16.5957C77.5714 16.8174 77.4622 17.0294 77.3649 17.2457C77.3448 17.2949 77.3227 17.3434 77.3039 17.3922C77.1484 17.7551 77.0208 18.0956 76.9255 18.4207C76.7167 17.9438 76.5623 17.348 76.5623 16.4401C76.5623 14.8028 76.9352 13.7354 77.4687 12.6284C77.8591 11.8182 78.3543 10.8547 78.8145 9.87269ZM46.3987 11.2826C47.3318 11.6265 48.4359 12.0266 49.4322 12.8421C50.3418 13.5866 51.0596 14.4647 51.3792 15.6558C51.3863 15.7019 51.3955 15.7478 51.4067 15.7931C51.5056 16.1913 51.5623 16.6111 51.5623 17.0779C51.5623 19.0266 51.0778 20.4353 50.5339 21.4389C50.209 21.9839 49.873 22.4114 49.6061 22.6687C49.3044 22.5424 48.9727 22.3931 48.5716 22.1591C47.8417 21.6851 47.0506 21.0512 46.4231 20.2029C46.3863 20.1531 46.3456 20.1076 46.3102 20.0564C45.9648 19.5595 45.6802 19.0031 45.5107 18.381C45.5049 18.3615 45.4988 18.3422 45.4923 18.323C45.3804 17.881 45.3123 17.404 45.3123 16.8795C45.3123 15.37 45.5363 14.5192 45.825 13.608C46.0244 12.9786 46.215 12.117 46.3987 11.2826ZM90.3929 14.2886C90.0621 16.0769 89.4839 17.8935 88.513 19.2507C88.2155 19.6665 87.8993 20.0401 87.5547 20.3677C87.4905 20.4079 87.4293 20.4528 87.3716 20.502C86.6403 21.133 85.8235 21.5703 84.8142 21.7623C84.7695 21.7705 84.7255 21.7795 84.68 21.7868C84.3508 21.8412 84.0043 21.8753 83.6302 21.8753C83.0865 21.8753 82.6373 21.8324 82.2416 21.7684C82.0216 21.7319 81.8508 21.6761 81.6709 21.625C81.5406 21.5888 81.3953 21.557 81.2834 21.5151C81.0764 21.436 80.9013 21.3527 80.7493 21.2619C80.7136 21.2407 80.6725 21.2192 80.6394 21.1978C80.4751 21.0903 80.336 20.9791 80.2244 20.8743C80.1864 20.8387 80.1467 20.8051 80.1054 20.7736C79.7771 20.4273 79.7366 20.2688 79.727 20.2151V20.212C79.7284 20.1342 79.735 19.943 79.7788 19.678V19.6749C79.8456 19.2745 79.9991 18.7039 80.3495 18.0972V18.0941C80.5835 17.6895 80.9072 17.2697 81.3505 16.8704C81.5729 16.6702 81.8259 16.4747 82.1134 16.2905C82.3467 16.1411 82.6292 16.0162 82.9283 15.8969C83.0867 15.8357 83.2537 15.7769 83.4287 15.7229C83.5088 15.6973 83.5953 15.6739 83.679 15.6497C85.3932 15.168 87.7817 14.9339 90.3929 14.2886ZM57.5895 15.7717C57.6828 16.2038 57.8001 16.5928 57.8001 17.1603C57.8001 19.5736 57.0363 20.9837 55.8378 21.9546C55.1204 22.5358 54.1427 22.8917 53.0668 23.1326C53.485 22.4151 53.8718 21.5677 54.1685 20.5691C54.184 20.5191 54.1932 20.4611 54.2082 20.4104C54.3409 19.9407 54.4682 19.4628 54.5469 18.9334C54.5484 18.9238 54.5485 18.9124 54.55 18.9028C54.6341 18.3274 54.6873 17.7232 54.6873 17.0779C54.6873 16.8837 54.6633 16.7013 54.6507 16.5133C55.657 16.1285 56.7158 15.8657 57.5895 15.7717ZM42.9472 20.4165C43.6662 22.0191 44.7906 23.2541 45.8738 24.1091C46.0498 24.2481 46.2181 24.3432 46.3926 24.4662C45.7037 24.7648 44.8528 25.0003 43.6918 25.0003C42.2001 25.0003 41.228 24.449 40.4631 23.7429C39.865 23.1909 39.577 22.62 39.3156 22.1347C39.9943 21.4527 41.2127 20.5632 42.9472 20.4165ZM88.1468 23.7582C89.2756 24.9261 90.0125 26.2696 90.3715 27.286C89.4569 27.6655 88.0646 28.1253 86.0044 28.1253C82.5423 28.1253 81.2562 26.7491 80.4808 25.3268C80.2222 24.8526 80.3329 24.7962 80.2152 24.3716C80.3354 24.4174 80.4834 24.445 80.6089 24.4876C80.882 24.5873 81.1781 24.6673 81.4878 24.7409C81.6501 24.7788 81.8041 24.8237 81.9761 24.8538C82.1118 24.8773 82.2513 24.897 82.3942 24.9148C82.7828 24.9645 83.1869 25.0003 83.6302 25.0003C85.3491 25.0003 86.8606 24.5244 88.1468 23.7582ZM70.2421 34.3753C71.1308 34.3753 72.2068 34.6113 73.1321 34.8025C72.8176 35.7045 72.124 36.958 70.4313 38.4829C69.1185 37.8498 67.5344 37.5434 65.7347 37.5125C65.844 37.1511 65.7804 37.0683 66.0368 36.6305C66.7272 35.4514 67.7365 34.3753 70.2421 34.3753ZM36.3523 36.4718C36.857 37.4057 37.4463 38.9297 37.4845 41.8215C37.2793 42.0072 37.0725 42.1935 36.8711 42.38C35.8559 42.615 34.9762 43.0597 34.2283 43.616C34.0476 42.7773 33.6928 42.0399 33.2334 41.3943C33.8924 38.9831 35.2809 37.3894 36.3523 36.4718ZM64.3339 40.6253H65.4356C66.0314 40.6254 66.5277 40.6653 66.9981 40.7168C67.2699 40.749 67.5125 40.7925 67.7488 40.8419C67.9111 40.8745 68.0692 40.9109 68.2157 40.9518C68.8202 41.1228 69.3124 41.3503 69.6928 41.6354C69.7128 41.6501 69.7331 41.6644 69.7538 41.6781C69.9978 41.8761 70.216 42.0972 70.4069 42.3526C71.1641 43.3652 71.5941 45.3526 71.7619 48.1021C70.8944 47.7727 70.0739 47.4318 68.7345 47.1072C67.7609 46.871 67.0127 46.3962 66.4121 45.7888C66.3755 45.7376 66.3357 45.6887 66.2931 45.6423C65.0582 44.2912 64.6047 42.5276 64.3766 41.1349C64.366 40.9724 64.3524 40.8181 64.3339 40.6253ZM24.9998 40.8145C26.1026 40.9399 27.4893 41.0947 28.7535 41.669C29.3663 41.9473 29.8517 42.2617 30.2549 42.6242C30.2866 42.6634 30.3203 42.7011 30.3556 42.7371C30.7772 43.1603 31.058 43.5968 31.1796 44.1897C31.1832 44.2087 31.1885 44.2254 31.1918 44.2446C31.229 44.4459 31.2498 44.663 31.2498 44.9069C31.2498 45.4584 31.2202 45.9196 31.1735 46.3229C31.1674 46.3774 31.1558 46.4173 31.1491 46.4694C31.1018 46.8242 31.0461 47.1449 30.9782 47.4093C30.8739 47.8083 30.7573 48.1168 30.6578 48.3065C28.8644 48.2348 27.3461 48.0282 26.5531 47.4032C25.6457 46.688 24.9998 45.4296 24.9998 42.554V40.8145ZM61.1875 41.3363C61.1888 41.3461 61.1924 41.357 61.1936 41.3668C61.2616 41.986 61.4011 42.7525 61.7491 43.8021C62.0614 44.7444 62.5217 45.7576 63.1651 46.7013C62.5952 47.5138 61.7702 48.4441 60.8579 49.4876C60.1655 48.5879 59.3748 47.2229 59.3748 44.7817C59.3748 42.9299 60.0285 42.1072 60.7817 41.5164C60.9346 41.3964 61.026 41.4287 61.1875 41.3363ZM38.4153 45.3128C38.4108 45.3128 38.5065 45.3278 38.7693 45.3463C38.8171 45.3495 38.8649 45.3506 38.9128 45.3494C38.9168 45.3494 38.9209 45.3494 38.925 45.3494C40.508 45.5326 41.687 46.5315 43.3256 47.4765C42.5499 48.5751 41.1977 50.0003 38.2139 50.0003C36.0346 50.0003 34.8106 49.4805 34.0177 49.0237C34.1376 48.7097 34.2371 48.4425 34.4023 48.1173C34.5257 47.9028 34.6336 47.6908 34.7837 47.4765C34.9442 47.2464 35.1194 47.0289 35.3025 46.8203C35.3938 46.718 35.4919 46.6254 35.5894 46.5304C35.723 46.3985 35.8632 46.2762 36.0105 46.1611C36.1128 46.0807 36.2115 45.9936 36.3188 45.9231C36.4921 45.8091 36.6771 45.7149 36.8681 45.6301C36.9183 45.6085 36.9691 45.5887 37.0207 45.5691C37.1634 45.5135 37.314 45.4695 37.4693 45.4318C37.4824 45.4286 37.4958 45.4256 37.5089 45.4226C37.5099 45.4224 37.511 45.4228 37.512 45.4226C37.6911 45.4276 37.8696 45.4018 38.04 45.3463C38.1652 45.3352 38.2812 45.3128 38.4153 45.3128ZM15.9391 52.579C15.5884 52.5762 15.2468 52.6915 14.9695 52.9063C14.6922 53.1211 14.4953 53.423 14.4104 53.7633C14.3255 54.1037 14.3575 54.4627 14.5014 54.7826C14.6453 55.1025 14.8927 55.3647 15.2036 55.527L17.9563 57.0101C18.1375 57.1175 18.3386 57.1871 18.5473 57.2148C18.7561 57.2424 18.9683 57.2276 19.1712 57.1712C19.3741 57.1149 19.5635 57.018 19.7281 56.8866C19.8926 56.7551 20.0289 56.5918 20.1287 56.4063C20.2285 56.2209 20.2898 56.0172 20.309 55.8075C20.3281 55.5977 20.3046 55.3863 20.2399 55.1859C20.1753 54.9855 20.0708 54.8002 19.9327 54.6411C19.7946 54.4821 19.6258 54.3526 19.4364 54.2605L16.6868 52.7774C16.4581 52.6496 16.201 52.5814 15.9391 52.579ZM12.5669 59.7262C12.2027 59.7281 11.8505 59.8573 11.5714 60.0913C11.2922 60.3253 11.1036 60.6495 11.0381 61.0078C10.9726 61.3661 11.0343 61.7361 11.2126 62.0537C11.3909 62.3714 11.6746 62.6167 12.0146 62.7474L14.9137 63.9102C15.1055 63.9945 15.3123 64.0394 15.5218 64.0421C15.7313 64.0449 15.9393 64.0056 16.1332 63.9264C16.3272 63.8472 16.5033 63.7298 16.651 63.5812C16.7987 63.4326 16.915 63.2558 16.993 63.0613C17.0709 62.8668 17.109 62.6587 17.1049 62.4492C17.1009 62.2397 17.0547 62.0332 16.9692 61.8419C16.8837 61.6507 16.7606 61.4785 16.6072 61.3358C16.4539 61.193 16.2734 61.0826 16.0765 61.011L13.1773 59.8483C12.9841 59.7671 12.7765 59.7256 12.5669 59.7262ZM67.8739 63.0038C68.8598 63.8048 69.8939 64.9974 70.7304 66.4614C70.3325 66.6294 69.9686 66.8114 69.6409 67.0077C69.6329 67.0123 69.6213 67.0152 69.6134 67.0199C69.6134 67.0209 69.6134 67.0219 69.6134 67.023C69.3647 67.1732 69.1333 67.3319 68.9146 67.496C67.9187 68.229 67.2918 69.0353 66.8424 69.8306C66.7128 70.0485 66.5914 70.2581 66.4884 70.4714C66.4666 70.5206 66.4448 70.5691 66.4244 70.6179C66.2625 70.97 66.129 71.3013 66.0276 71.6189C65.7988 71.1338 65.6248 70.5244 65.6248 69.5651C65.6248 67.9278 65.9976 66.8603 66.5312 65.7534C66.9208 64.9451 67.4142 63.9828 67.8739 63.0038ZM10.034 67.2427C9.65683 67.2554 9.29702 67.4042 9.02102 67.6615C8.74502 67.9189 8.57146 68.2674 8.5324 68.6427C8.49334 69.018 8.59142 69.3948 8.80853 69.7035C9.02563 70.0121 9.34709 70.2318 9.71354 70.3219L12.7378 71.1093C12.9366 71.1608 13.1436 71.1726 13.3469 71.1441C13.5503 71.1156 13.746 71.0474 13.923 70.9432C14.1 70.8391 14.2547 70.7011 14.3784 70.5371C14.502 70.3732 14.5922 70.1865 14.6437 69.9877C14.6952 69.789 14.707 69.582 14.6785 69.3786C14.65 69.1753 14.5817 68.9795 14.4776 68.8026C14.3735 68.6256 14.2355 68.4709 14.0715 68.3472C13.9076 68.2236 13.7209 68.1334 13.5221 68.0819L10.4978 67.2976C10.3468 67.2562 10.1905 67.2377 10.034 67.2427ZM44.4761 68.7503H47.9185C47.5179 69.7574 47.1471 70.8101 46.3743 71.5914C45.3235 72.6539 43.8763 73.4378 41.287 73.4378H39.2759C39.4979 71.8478 39.9267 70.6589 40.5851 70.0137C41.4589 69.1575 42.7375 68.7503 44.4761 68.7503ZM75.0669 68.7503C76.6542 68.7503 78.0535 69.2183 79.2143 69.5986C78.5009 70.8197 77.896 72.0964 77.1452 72.9922C76.9335 73.2447 76.7029 73.4741 76.4555 73.691C76.4295 73.7086 76.4041 73.7269 76.3792 73.746C75.7153 74.2812 74.8775 74.7091 73.5807 74.8965C73.5417 74.9018 73.5016 74.9068 73.4617 74.9118C73.0363 74.9673 72.5689 75.0003 72.0365 75.0003C71.6326 75.0003 71.2929 74.9606 70.9898 74.8995C70.8532 74.8716 70.7461 74.8272 70.6266 74.7897C70.4834 74.7448 70.3323 74.7024 70.2116 74.6462C70.1017 74.5955 70.0128 74.5358 69.9186 74.4784C69.8094 74.4107 69.695 74.3448 69.6043 74.2709C69.5635 74.2387 69.526 74.209 69.4883 74.1763C69.3597 74.0603 69.2406 73.9415 69.1404 73.8253C69.1394 73.8243 69.1384 73.8233 69.1374 73.8223C68.9087 73.5559 68.8677 73.4424 68.8108 73.3248C68.8191 73.0529 68.8719 72.2423 69.4639 71.3381L69.467 71.3351C69.8235 70.7917 70.3746 70.2154 71.2278 69.6994C71.6874 69.4225 72.4446 69.1136 73.3732 68.9303C73.3895 68.9265 73.4058 68.9224 73.422 68.9181C73.924 68.8215 74.4609 68.7503 75.0669 68.7503ZM8.48978 75.0064C8.09854 75.0269 7.7293 75.1937 7.45522 75.4736C7.18113 75.7536 7.0222 76.1263 7.00992 76.5179C6.99763 76.9094 7.13289 77.2914 7.38889 77.5879C7.64489 77.8845 8.00295 78.0741 8.39213 78.1191L11.4897 78.5311C11.6949 78.5622 11.9042 78.552 12.1055 78.5013C12.3068 78.4505 12.4959 78.3602 12.6619 78.2355C12.8278 78.1108 12.9673 77.9544 13.0721 77.7752C13.1769 77.5961 13.245 77.3978 13.2724 77.1921C13.2997 76.9863 13.2858 76.7772 13.2315 76.5769C13.1771 76.3765 13.0834 76.1891 12.9558 76.0254C12.8282 75.8617 12.6693 75.725 12.4883 75.6234C12.3073 75.5218 12.1079 75.4573 11.9016 75.4336L8.80106 75.0216C8.69807 75.0062 8.59379 75.0011 8.48978 75.0064ZM39.3888 76.7001C41.7591 76.843 43.6325 77.1735 44.6623 77.8903C45.7836 78.6708 46.4014 80.1124 46.6795 82.4984C45.7242 82.1876 44.7693 81.8545 43.5148 81.5768C41.2203 81.0681 40.2365 79.5895 39.6482 78.0245C39.3892 77.3356 39.4693 77.2292 39.3888 76.7001ZM76.9865 77.0144C78.136 78.3293 78.9134 79.9165 79.3455 81.2503H75.1066C71.6225 81.2503 70.3252 79.8704 69.5463 78.4487C69.319 78.0339 69.3682 77.9182 69.3022 77.6095C70.0843 77.914 70.9854 78.1253 72.0365 78.1253C74.0541 78.1253 75.6802 77.6886 76.9865 77.0144ZM7.85807 82.8402C7.45657 82.8617 7.07882 83.0372 6.80337 83.3301C6.52792 83.623 6.37597 84.0108 6.37911 84.4129C6.38226 84.8149 6.54026 85.2003 6.82026 85.4888C7.10025 85.7774 7.4807 85.9469 7.88248 85.9622L11.0044 86.0934C11.2118 86.1062 11.4197 86.0775 11.6159 86.009C11.8121 85.9405 11.9927 85.8336 12.147 85.6945C12.3014 85.5554 12.4264 85.3868 12.5149 85.1988C12.6033 85.0107 12.6534 84.807 12.6621 84.5993C12.6708 84.3917 12.6381 84.1844 12.5657 83.9896C12.4934 83.7948 12.3829 83.6164 12.2407 83.4648C12.0986 83.3133 11.9276 83.1915 11.7379 83.1068C11.5482 83.0221 11.3434 82.9761 11.1357 82.9714L8.01371 82.8402C7.96186 82.8376 7.90992 82.8376 7.85807 82.8402ZM7.81229 90.6253C7.60524 90.6223 7.39968 90.6606 7.20754 90.7378C7.0154 90.815 6.84052 90.9296 6.69307 91.075C6.54562 91.2204 6.42853 91.3936 6.34861 91.5846C6.26869 91.7757 6.22754 91.9807 6.22754 92.1878C6.22754 92.3948 6.26869 92.5998 6.34861 92.7909C6.42853 92.9819 6.54562 93.1551 6.69307 93.3005C6.84052 93.4459 7.0154 93.5605 7.20754 93.6377C7.39968 93.7149 7.60524 93.7532 7.81229 93.7503H10.9373C11.1443 93.7532 11.3499 93.7149 11.542 93.6377C11.7342 93.5605 11.9091 93.4459 12.0565 93.3005C12.204 93.1551 12.3211 92.9819 12.401 92.7909C12.4809 92.5998 12.522 92.3948 12.522 92.1878C12.522 91.9807 12.4809 91.7757 12.401 91.5846C12.3211 91.3936 12.204 91.2204 12.0565 91.075C11.9091 90.9296 11.7342 90.815 11.542 90.7378C11.3499 90.6606 11.1443 90.6223 10.9373 90.6253H7.81229Z" fill="#225588"/>
</svg>
