<?xml version="1.0" encoding="UTF-8"?>
<svg id="Layer_2" data-name="Layer 2" xmlns="http://www.w3.org/2000/svg" viewBox="0 0 631.67 453.39">
  <defs>
    <style>
      .cls-1 {
        fill: #A0B034;
      }
    </style>
  </defs>
  <g id="Layer_1-2" data-name="Layer 1">
    <path class="cls-1" d="m212.05,113.91c9.28-11.23,20.7-21.05,33.39-28.21,6.17-3.49,12.76-6.56,19.82-7.74,7.05-1.19,14.8-.61,21.89,1.42,3.33.96,6.63,2.19,9.54,4.1,1,.65,1.84,1.42,2.61,2.34.61.77,1.26,1.69,2.38,1.69l-1.92-1.3c.27.38.5.81.69,1.23.77,1.57,3.91,1.88,2.8-.38-.54-1.15-1.34-2.57-2.8-2.57l1.92,1.3c-3.26-4.64-8.63-7.09-13.92-8.78-6.98-2.22-14.41-3.22-21.7-2.49-14.57,1.38-28.02,9.97-39.18,18.94-6.75,5.44-13,11.42-18.48,18.06-1.04,1.26,1.92,3.68,2.99,2.42h-.04Z"/>
    <path class="cls-1" d="m179.66,177.59c.15,13.23,9.51,22.16,20.78,27.56,12.31,5.9,27.33,7.9,40.67,4.83,12.04-2.76,22.66-9.47,31.7-17.67,11.92-10.81,21.93-24.23,29.67-38.3,7.74-14.07,13.46-29.33,14.87-45.05,1.19-13.03-4.64-27.41-16.22-34.16-6.29-3.64-13.69-5.52-20.82-6.48-8.01-1.07-16.18-.54-23.92,1.8-15.14,4.64-28.83,14.53-40.33,25.19-20.43,18.9-33.54,43.86-35.92,71.69-.31,3.53-.46,7.09-.46,10.66,0,1.49,3.34,3.18,3.34,1.15.08-25.95,8.78-50.57,25.68-70.31,9.43-11.04,20.89-20.74,33.51-27.98,6.52-3.72,13.46-7.05,20.82-8.59,7.82-1.61,15.83-1.34,23.61.35,6.21,1.34,12.96,3.45,17.79,7.78,5.44,4.87,8.89,13.26,9.66,20.43.58,5.67-.46,11.5-1.69,17.06-1.69,7.59-4.02,15.03-7.09,22.16-6.17,14.53-15.03,27.98-25.38,39.87-8.2,9.47-17.79,18.06-29.21,23.42-11.42,5.37-22.73,6.36-34.58,4.37-11.85-1.99-27.22-7.94-31.74-20.28-1-2.68-1.38-5.44-1.38-8.28,0-1.49-3.37-3.14-3.34-1.15l-.04-.08Z"/>
    <path class="cls-1" d="m198.06,203.93c14.91,8.24,31.51,14.61,48.8,14.15,16.14-.46,30.32-9.66,41.75-20.39,12.69-11.92,24.42-26.26,31.13-42.44,3.3-7.9,5.29-16.45,7.21-24.76,1.49-6.63,3.07-13.65,2.8-20.51-.27-6.13-2.26-13.88-7.09-18.06-5.48-4.75-11.19-9.24-16.83-13.84-1.8-1.5-3.34.38-1.5,1.88,5.14,4.18,10.31,8.4,15.41,12.65.54.46,1.07.88,1.57,1.34.15.11.31.23.42.38.35.35-.42-.58.08.19,2.15,3.34,3.68,6.94,4.26,10.89,1,6.67-.35,13.57-1.73,20.09-1.65,7.9-3.6,15.87-6.21,23.5-5.25,15.37-15.53,28.68-26.61,40.37-11.08,11.69-24.3,22.5-40.37,25.15-18.13,2.99-36.88-4.37-52.44-12.96-2.22-1.23-2.42,1.46-.65,2.45v-.08Z"/>
    <path class="cls-1" d="m305.32,105.29c-1.26,14.34-6.63,28.52-13.46,41.06-6.82,12.54-16.29,25.42-27.22,35.61-1.15,1.07,1.76,3.57,2.99,2.42,11.12-10.35,20.47-23,27.64-36.38,6.71-12.57,12.08-26.6,13.34-40.87.15-1.53-3.14-3.49-3.26-1.84h-.04Z"/>
    <path class="cls-1" d="m252.76,132.05c.61-.69.77-1.69,1.15-2.49.38-.8.77-1.53,1.26-2.22.54-.77,1.11-1.53,1.69-2.26.5-.65,1.07-1.34,1.69-1.8.19-.15.5-.35.73-.46.11-.08.27-.12.38-.19.23-.11-.15,0,.15-.04.11,0,.27,0,.38-.08.27-.08-.27-.04.11,0,.42.08-.27-.08.04,0,.23.04.31.08.46.11.77.15,1.49.27,2.26.38l-2.18-2.07c.23,2.26-.92,4.6-2.84,5.98-1.11.81-2.34,1.46-3.6,1.92-1.23.42-2.45.57-3.72.57-.81,0-1.34.46-1.07,1.3.27.77,1.23,1.69,2.11,1.69s1.65,0,2.45-.08c.81-.08,1.57-.31,2.3-.58,1.49-.46,2.88-1.23,4.14-2.15,2.38-1.76,3.83-4.56,3.53-7.55-.11-1.07-1.19-1.92-2.18-2.07l-1.11-.19-.84-.15s-.35-.12-.38-.08c.34.08.42.08.19.04-.19-.04-.35-.08-.54-.11h-.31c-.38,0-.77,0-1.15.08-.69.15-1.3.46-1.88.88-1.49,1.11-2.65,2.68-3.72,4.22-.57.81-1.07,1.69-1.53,2.61-.19.42-.38.81-.54,1.23-.15.42-.23.84-.54,1.19-.57.65.19,1.72.73,2.15.57.42,1.65.96,2.26.27l.12-.04Z"/>
    <path class="cls-1" d="m251.92,139.33c1.46-.77,2.95-1.26,4.56-1.49.69-.12,1.57-.19,2.18-.15.35,0,.65,0,.96.08.11,0,.42.08.15,0,.15,0,.31.11.46.15.15,0-.35-.19,0,0,.38.23-.19-.15-.04,0,.15.11-.31-.38-.08-.04.11.15-.23-.38,0,0,.04.08-.04-.35,0,0,.04.31,0-.04,0,.08.04.19.08.38.15.58.23.65.46,1.3.73,1.96l.12-1c-.65,1-1.38,1.84-2.45,2.3-.84.38-1.76.27-2.57,0-.23-.08-.5-.19-.73-.27.38.15-.08-.04-.11-.08-.12-.08-.23-.12-.35-.19-.12-.08-.23-.15-.35-.19.42.27,0,0-.08-.08-.19-.15-.42-.34-.61-.5.35.31-.04-.08-.08-.12-.08-.12-.19-.19-.27-.31-.08-.11-.19-.23-.27-.35-.35-.42.19.27-.12-.19-.38-.58-.73-1.15-1-1.76-.38-.77-1.46-1.46-2.3-1.3-.96.15-.81,1.07-.5,1.73,1.19,2.45,3.07,4.68,5.56,5.86,2.22,1.07,4.98,1.57,7.13.08.92-.65,2.57-2.03,2.18-3.26-.19-.61-.46-1.26-.69-1.88l-.08-.23s.11.46,0,.15c0-.19-.08-.42-.15-.61-.19-.58-.54-1.15-.92-1.61-.88-1.04-2.15-1.61-3.45-1.84-1.49-.31-3.14-.15-4.64.11-1.69.27-3.3.84-4.79,1.65-1.5.81,1.11,3.53,2.45,2.84l-.04-.12Z"/>
    <path class="cls-1" d="m246.24,144.24h.19l-.84-.31s.54.35.19.11c.15.12.31.23.42.31.11.08.23.19.35.31.08.08.15.12.19.19q-.11-.12,0,0c.5.46.96,1.07,1.27,1.49.8,1.19,1.46,2.53,1.49,3.95,0,1.34-1.11,2.72-1.8,3.91l.57-.31c-.54.08-.73.12-1.3,0,.23.04.08,0-.04,0s-.31-.19,0,0c-.08-.04-.15-.12-.23-.15.42.23.11.04,0-.04.11.08.23.23.08.04,0,0-.27-.35-.15-.15.11.19-.08-.15-.12-.19,0,0-.19-.38-.15-.23-.15-.31-.38-1-.46-1.46-.23-1.26-.15-2.49.08-3.76.15-.73.35-1.46.61-2.18.12-.35.27-.69.38-1.04.11-.42.04-.38.27-.77.46-.73-.11-1.69-.73-2.15-.46-.35-1.76-1.03-2.26-.27-.19.31-.38.61-.5.96v.15c.08.23,0,.35-.15.35-.04.15-.11.31-.19.46-.31.81-.54,1.61-.73,2.42-.31,1.38-.42,2.8-.23,4.18.35,2.8,1.8,5.56,4.56,6.59.54.19,1.11.31,1.69.35.58.04,1.53.08,1.96-.38s.69-1.19,1.04-1.76c.38-.69.84-1.34,1-2.11.31-1.38,0-2.8-.46-4.1-.65-1.69-1.65-3.26-2.91-4.6-.54-.57-1.11-1.15-1.76-1.61-.65-.5-1.49-1.19-2.38-1.19-2.3,0-.5,3.03,1.04,3.03l.04-.04Z"/>
    <path class="cls-1" d="m245.29,125.95s-.35-.23-.5-.35c.11.11-.23-.23-.23-.27,0,0-.31-.38-.23-.31-.54-.69-1.07-1.38-1.57-2.11-.73-1-1.15-2.57-.96-3.79.12-.84.58-1.38,1-2.07l1.19-1.76-.57.31h.5c.11,0,.35.04.08,0,.08,0,.19.08.27.08.42.12-.19-.11,0,0,.31.27.11.08,0,0,.08.08.15.12.23.15-.19-.15-.19-.23,0,0,.23.35.08.08,0,0,.04.08.12.19.15.27.15.23,0-.04.08.11.04.11.08.19.12.31.19.54.31,1.07.35,1.61.15,1.26.08,2.53-.19,3.76-.15.73-.38,1.46-.61,2.15-.23.61-.42,1.3-.84,1.8-1.07,1.19,1.88,3.64,2.99,2.42.46-.54.73-1.26,1-1.92.31-.73.54-1.5.73-2.3.35-1.38.46-2.84.38-4.26-.19-2.61-1.19-5.37-3.68-6.63-.58-.31-1.15-.5-1.8-.61-.65-.11-1.61-.27-2.07.23-.38.42-.65,1-1,1.46-.42.61-.88,1.19-1.15,1.84-.5,1.07-.5,2.3-.31,3.45.15.84.38,1.65.73,2.45.38.92,1.03,1.76,1.69,2.53,1.11,1.42,2.11,2.76,3.72,3.72.57.35,1.72.54,1.96-.31.23-.84-.65-1.76-1.3-2.15l-.11.19Z"/>
    <path class="cls-1" d="m237.2,131.89c-1.26.96-2.68,1.73-4.18,2.26-1.34.5-2.99.92-4.22.73-.08,0-.54-.08-.08,0-.12,0-.46-.23,0,0-.15-.08-.42-.27.04.04-.31-.23.31.35.08.08.15.23.19.27.12.15-.08-.12-.04-.08.08.15,0-.08-.08-.23-.11-.31-.08-.19-.15-.35-.27-.54-.35-.65-.73-1.3-1.07-1.96l.08,1.42c.5-.96,1.15-1.99,2.03-2.53.19-.12.42-.27.65-.35q.27-.12.5-.19c.27-.04.54-.12.84-.12h.57c.31,0,.61.08.88.12.34.08.27.04.61.15.27.08.54.19.8.31-.31-.11.04,0,.12.04.11.08.27.11.38.19.15.08.31.19.42.27q-.15-.12,0,0c.15.12.27.23.42.31,0,0,.38.35.19.19-.19-.15.19.19.19.19.11.12.19.23.31.35.12.12.19.23.31.35.23.27-.08-.12.15.23.5.73,1.38,1.46,2.3,1.3.84-.11.92-1.11.5-1.72-1.65-2.38-3.95-4.29-6.79-5.02-2.49-.61-5.06-.5-6.98,1.42-.38.42-.73.88-1.04,1.34-.19.31-.42.65-.5.96-.12.38.08.81.27,1.15.31.61.65,1.19.96,1.76.04.08.11.19.15.27-.23-.46-.12-.15,0,.04.31.69.77,1.3,1.34,1.76,1.07.88,2.38,1.15,3.72,1.15,1.61,0,3.14-.46,4.64-1.03,1.5-.58,2.84-1.27,4.1-2.22.69-.54.42-1.42-.12-1.99-.42-.46-1.65-1.38-2.38-.84l-.04.15Z"/>
    <path class="cls-1" d="m237.54,140.41c-.12,1.73-.69,3.41-1.38,4.98-.19.42-.46.81-.61,1.26-.08.19,0,.46-.12.61-.08-.15-.11-.11-.15.12l-.08.19c-.35.73-.73,1.42-1.23,2.07-.42.54-.69.84-1.19,1.11-.12.08-.23.12-.38.15-.27.12.15,0-.11,0-.19,0-.38.04-.58.08-.77.04-1.53.12-2.26.19l2.3,1.3c-.15-.31-.35-.88-.38-1.34-.04-.57,0-1.15.15-1.73.15-.61.42-1.23.73-1.76.19-.31.31-.58.61-.77.31-.19.5-.42.73-.69,1.57-1.96,4.02-3.18,6.44-3.64.84-.15.92-1.07.5-1.73-.42-.69-1.42-1.49-2.3-1.3-1.53.31-3.03.8-4.37,1.57-.65.38-1.26.84-1.84,1.34-.27.23-.54.5-.81.73-.27.23-.5.61-.77.84-.08.08-.19.12-.31.15-.27.15-.38.31-.54.54-.27.42-.54.84-.73,1.3-.35.69-.61,1.38-.77,2.15-.31,1.69.04,3.26.8,4.79.38.77,1.42,1.38,2.3,1.3,1.19-.12,2.61,0,3.72-.54.88-.38,1.61-1.11,2.15-1.88.38-.54.69-1.11,1-1.69.31-.57.61-1.15.61-1.84l-.19.65c1.23-2.34,2.11-4.72,2.3-7.36.12-1.49-3.18-3.18-3.34-1.15l.08-.04Z"/>
    <path class="cls-1" d="m230.91,199.17c-9.7.92-19.55-.81-28.41-4.79l.61,2.91h.19c1.99,0,.88-2.15-.19-2.72-.54-.31-1.11-.65-1.73-.88.15.08.92.61.19.19-.38-.23-1.3-.73-1.5-.84-2.18-1.07-4.33-2.72-5.98-4.45-3.57-3.72-4.71-8.2-4.6-13.23.23-12.15,2.49-24.15,6.94-35.5.58-1.42-2.61-3.53-3.26-1.84-4.64,11.81-6.86,24.38-7.01,37.07-.04,4.64,1.26,8.97,4.06,12.69,1.42,1.88,3.14,3.57,5.06,4.98,1.46,1.07,4.03,3.37,5.9,3.37l-1.65-.92c.84.84,1.84,1.19,2.91,1.8l-.19-2.72h-.19c-2.34,0-.46,2.45.61,2.91,9.35,4.22,19.82,5.94,30.05,4.98,1.96-.19-.31-3.18-1.8-3.03h-.04Z"/>
    <path class="cls-1" d="m258.17,187.4c-.96.69-1.92,1.34-2.88,2.03-.15.08-.27.19-.35.35-.11.15-.11.31-.11.5,0,.38.27.84.54,1.15.35.35.77.69,1.23.84l.42.11c.27,0,.5,0,.73-.11.96-.65,1.92-1.34,2.88-2.03.15-.08.27-.19.35-.35.12-.15.12-.31.12-.5,0-.38-.27-.84-.54-1.15-.35-.35-.77-.69-1.23-.84l-.42-.12c-.27,0-.5,0-.73.12Z"/>
    <path class="cls-1" d="m198.48,135.31c.5-1.15,1.04-2.3,1.61-3.45l-.15.31s.15-.27.19-.38c.12-.15.15-.31.15-.46,0-.19,0-.38-.08-.54-.15-.42-.5-.84-.84-1.11s-.8-.54-1.26-.57c-.31,0-.8,0-.96.31-.69,1.34-1.34,2.72-1.96,4.14-.15.31.08.84.23,1.11.23.38.65.81,1.07,1.04.35.19.81.38,1.23.31l.35-.12c.19-.11.35-.27.38-.5l.04-.08Z"/>
    <path class="cls-1" d="m256.75,216.31c1.23,9.05,2.61,19.24,8.97,26.26,2.61,2.88,5.79,5.14,9.24,6.82,1.96.96,4.02,1.73,6.1,2.34,1.42.42,3.6,1.53,4.83.31l-1.49.34c14.99,3.76,32.2,1.42,45.54-6.56,11.35-6.78,19.93-17.37,26.45-28.75,8.78-15.34,14.91-32.55,17.86-49.95,1.57-9.24,2.15-18.52,1.65-27.87-.34-6.55-1.15-13.19-3.87-19.24-3.26-7.32-9.93-15.56-17.79-17.94-3.91-1.19-7.55-2.3-11.69-2.65-5.33-.42-10.73-.12-16.06.65-2.11.31,0,3.41,1.69,3.18,8.17-1.15,17.21-1.53,25.03,1.5,1.15.46,2.34.65,3.33,1.3,1.73,1.15,3.49,2.53,5.02,3.99,2.95,2.88,5.4,6.21,7.13,9.93,2.8,5.94,3.45,12.61,3.76,19.05.42,8.97-.11,17.9-1.65,26.8-2.88,16.75-8.7,33.43-17.06,48.26-6.1,10.85-14.03,21.05-24.61,27.87-5.67,3.64-11.85,6.06-18.44,7.44-5.33,1.11-10.81,1.65-16.25,1.46-2.61-.08-5.14-.31-7.67-.92-1.34-.31-2.95-1.19-4.1-.08l1.49-.35c-6.52-1.53-12.92-4.26-17.17-9.66-4.83-6.17-5.86-15.03-6.9-22.54-.23-1.69-3.72-3.07-3.45-1h.12Z"/>
    <path class="cls-1" d="m329.85,109.58c5.33-.69,10.85-.88,16.1.35.77.19,1.72-.08,1.72-1.03s-.88-1.84-1.72-2.03c-5.83-1.34-11.88-1.19-17.83-.42-.92.11-1,1.23-.65,1.92.46.84,1.42,1.38,2.34,1.26l.04-.04Z"/>
    <path class="cls-1" d="m289.22,253.49c16.18,3.49,34.35,4.98,50.07-1.38,14.07-5.71,24.34-18.13,31.9-30.86,8.82-14.84,16.18-31.32,18.32-48.61,1.04-8.51.65-17.29.19-25.84-.35-6.71-.73-13.92-2.88-20.36-1.84-5.56-5.67-12.38-11.19-14.95-6.55-3.03-13.07-6.06-19.63-9.08-2.26-1.03-2.84,1.8-.88,2.72,6.06,2.8,12.08,5.6,18.13,8.4.81.38,1.8.69,2.53,1.19,2.76,1.84,5.02,5.44,6.44,8.36,2.88,5.98,3.37,13,3.83,19.55.57,8.05.92,16.25.42,24.3-.96,16.41-7.48,32.24-15.26,46.5-7.05,12.96-16.1,25.95-29.29,33.31-15.76,8.82-35.77,7.32-52.75,3.68-2.45-.54-1.88,2.65,0,3.07h.04Z"/>
    <path class="cls-1" d="m362.71,129.79c2.22,14.22.84,29.25-2.53,43.17-3.37,13.92-9.08,28.14-16.83,40.44-1,1.57,2.03,3.95,2.99,2.41,15.6-24.76,24.3-56.58,19.74-85.83-.27-1.76-3.68-2.53-3.33-.19h-.04Z"/>
    <path class="cls-1" d="m321.19,169.04c.54-.61.58-1.34.69-2.07.08-.5.19-1.15.35-1.8.42-1.57,1-3.1,1.69-4.6.27-.57.54-1.04.92-1.57.38-.54.65-.77,1.11-1.04.11-.08.23-.15.35-.19.04,0,.42-.19.15-.08.27-.11.54-.15.8-.19.08,0,.46-.04.15,0h.38c.35,0,.65.04,1,.12l-2.11-1.69c.42,1.07.54,2.03.27,3.18-.31,1.34-.96,2.53-1.88,3.53-.81.88-1.69,1.61-2.72,2.22-.54.35-1.11.65-1.73.88-.61.23-1.19.38-1.76.57-2.07.69.04,3.72,1.69,3.18,1.3-.42,2.53-.77,3.72-1.46,1.07-.61,2.07-1.34,2.95-2.18,1.95-1.8,3.33-4.37,3.26-7.09,0-1.57-.46-3.79-2.18-4.25-1.04-.31-2.34-.27-3.37.04-2.3.69-3.56,2.57-4.52,4.68-.61,1.38-1.15,2.8-1.53,4.26-.19.69-.31,1.38-.42,2.07,0,.27-.04.54-.11.77-.08.23,0,.19-.19.38-1.19,1.38,1.76,3.83,2.99,2.42l.08-.08Z"/>
    <path class="cls-1" d="m318.05,182.27c.38,0-.23.08,0,0,.12.04.12,0-.04,0,.08,0,.15.08.23.12.35.15.69.35,1.04.54.15.08.31.19.46.31-.31-.19.19.15.23.15.35.23.65.5.96.77.65.54,1.11,1.04,1.69,1.84-.15-.23.15.23.15.23.08.15.19.31.27.46,0,.08.23.46.11.19.08.15.12.35.15.5,0,.04.11.46.08.31,0-.15,0,.31,0,.35v.42c0-.27,0,.08-.04.15-.08.27-.15.5-.23.73l-.57,2.07.46-.57s-.38.15-.69.23c-.11,0-.23.04-.35.08-.11,0-.08,0,.08,0h-.54c.38,0,0,0-.08,0-.35-.08.27.19-.04,0-.08,0-.42-.15-.15-.08.27.08-.08-.04-.11-.12-.15-.11-.31-.27-.08-.04-.23-.23-.42-.5-.61-.77.15.23,0-.04-.08-.15-.08-.11-.15-.27-.23-.38-.15-.27-.31-.54-.42-.84-.11-.31,0,.08-.04-.12-.04-.15-.11-.31-.15-.46-.08-.27-.15-.57-.23-.88-.12-.61-.15-1-.19-1.69-.04-.69,0-1.42.08-2.15.04-.46.19-.96.08-1.46-.08-.27,0,.15,0,.15,0,0,.19-.5.19-.54.38-.81-.54-1.92-1.23-2.22-.77-.38-1.69-.38-2.11.46-.19.38-.31.77-.31,1.19,0,.19.08.35.08.54,0,.31.08-.23-.08.23-.23.69-.15,1.65-.15,2.38,0,1.34.19,2.72.61,3.95.88,2.57,2.72,5.4,5.56,6.02.65.15,1.3.15,1.99.08.73-.12,1.84-.35,2.15-1.11.23-.54.35-1.15.5-1.72.19-.69.42-1.38.46-2.15.08-1.34-.46-2.72-1.15-3.83-1-1.61-2.34-2.99-3.87-4.1-.73-.54-1.46-1-2.26-1.42-.69-.35-1.53-.77-2.3-.77-.88,0-1.46.65-1.23,1.49.23.84,1.19,1.69,2.11,1.69l-.15-.04Z"/>
    <path class="cls-1" d="m309.04,180.58c.08.35,0-.23,0,.12,0,.15,0,.27.04.42,0,.31.04.61.04.88,0,.69,0,1.42-.04,2.11-.04.84-.12,1.69-.23,2.57-.11.92-.15,1.88-.42,2.8-.19.69-.46,1.3-.92,1.88-.23.27-.27.31-.5.46-.04,0-.42.19-.15.12-.08,0-.19.04-.27.08-.69.23-1.42.5-2.11.77l2.07.88c-.23-.23-.42-.46-.61-.69.15.23,0-.04-.08-.12-.08-.11-.15-.27-.19-.38.08.15,0,0,0-.08-.04-.15-.08-.31-.11-.42-.08-.31-.08-.46-.12-.73,0-.61,0-1.23.12-1.8.15-.73.73-1.42,1.15-2.07,1.38-2.03,2.99-3.99,5.17-5.1.84-.42.5-1.61,0-2.15-.57-.69-1.61-1.15-2.45-.73-2.68,1.38-4.71,3.95-6.33,6.44-.27.42-.58.84-.77,1.26-.19.42-.27.96-.31,1.42-.11.73-.15,1.5-.04,2.22.19,1.65.88,3.22,2.07,4.41.46.46,1.34,1.15,2.07.88.81-.31,1.57-.57,2.38-.84,1.65-.54,2.61-2.03,3.14-3.6.35-1.04.42-2.18.57-3.3.12-.92.23-1.88.27-2.84.11-1.53.08-3.03-.15-4.52-.31-1.76-3.72-2.53-3.34-.19l.04-.15Z"/>
    <path class="cls-1" d="m322.53,176.13c1.07-1.03,2.3-1.88,3.64-2.53.65-.31,1.34-.57,2.07-.8.35-.12.73-.19,1.07-.23,0,0,.5,0,.23,0h.46c.12,0,.5.11.12,0,.11,0,.46.19.04,0,.11.08.23.23.11,0,.19.38-.23-.38,0,0,.23.31-.19-.38,0,0-.19-.23.04.08.08.15.12.23.27.5.42.69.42.58.88,1.11,1.3,1.65l-.42-1.57c-.35,1.07-.73,1.96-1.61,2.68.11-.12,0,0-.04,0-.12.08-.23.15-.35.23-.19.12-.42.23-.61.31.19-.08,0,0-.11,0s-.23.08-.35.08c-.15,0-.31.04-.46.08-.27.04,0,0-.15,0h-.84c-.15,0-.27,0-.42-.04-.54-.08.15,0-.15,0s-.61-.15-.92-.27c-.04,0-.46-.19-.27-.12.19.08-.27-.12-.27-.12-.27-.11-.54-.27-.8-.46-.5-.31.15.11-.12-.08-.11-.08-.27-.19-.38-.31-.69-.54-.92-.77-1.46-1.34-.57-.61-1.61-1.23-2.45-.73-.84.5-.54,1.57,0,2.15,2.03,2.22,4.52,3.99,7.55,4.45,2.34.35,4.79-.27,6.29-2.22.35-.46.61-.96.88-1.5.12-.27.23-.54.35-.8.27-.73.15-1.3-.31-1.96-.38-.5-.77-1-1.15-1.46-.08-.08-.11-.15-.19-.23.35.46.11.12,0-.11-.38-.61-.84-1.15-1.42-1.53-1.19-.84-2.53-1.07-3.91-.92-1.53.15-3.11.81-4.45,1.5-1.34.69-2.72,1.72-3.87,2.84-.65.65.04,1.84.61,2.26.69.54,1.69.8,2.34.15l-.08.11Z"/>
    <path class="cls-1" d="m315.4,238.89c-9.32,3.3-19.36,4.29-29.1,2.84l1.92,2.8.19-.19c1.15-1.15-1-2.65-1.92-2.8-1.69-.27-.8.15-.61.31-.69-.69-1.88-1.34-2.72-.5l-.19.19,1.49-.34c-5.21-1.3-10.43-3.57-13.42-8.24-1.61-2.53-2.26-5.48-2.91-8.36-.84-3.64-1.46-7.32-1.88-11.04-.19-1.69-3.68-3.1-3.45-1,.54,4.75,1.38,9.43,2.53,14.07.84,3.41,2.07,6.52,4.33,9.24,2.03,2.49,4.71,4.45,7.59,5.87,1.73.84,3.53,1.53,5.37,2.07,1.23.35,2.49,1,3.53,0l-2.72-.5c1.15,1.15,2.45,1.23,3.99,1.46l-1.92-2.8-.19.19c-1.15,1.15.96,2.68,1.92,2.8,10.01,1.5,20.4.46,29.94-2.91,2.07-.73-.08-3.76-1.69-3.18l-.08.04Z"/>
    <path class="cls-1" d="m284.43,252.34c.73.27,1.46.54,2.22.73.54.15,1.07.19,1.61.27.46.08.92.15,1.38.19.35.04.8-.11,1.04-.42.23-.31.27-.77.19-1.11-.31-.96-1.15-1.57-2.11-1.69-.84-.11-1.65-.23-2.49-.38l.42.08c-.77-.23-1.53-.46-2.3-.77-.77-.31-1.76.15-1.73,1.04,0,.46.19.88.5,1.23.35.38.77.61,1.23.8l.04.04Z"/>
    <path class="cls-1" d="m98.35,116.6c-1.96,7.48-3.26,14.68-2.65,22.43.69,8.43,2.95,16.68,5.71,24.65,2.76,7.97,6.33,15.99,10.73,23.39,4.41,7.4,9.39,13.3,14.57,19.74,4.68,5.79,9.32,11.73,13.19,18.09,3.87,6.36,5.6,13.61,6.48,20.89,1.07,8.74.65,17.33-2.49,25.61-2.76,7.28-7.01,14.26-12.69,19.63-5.67,5.37-13.26,9.47-20.82,12.27-4.52,1.69-9.2,3.03-13.8,4.41-5.1,1.53-10.47,1.65-15.53-.11l1.19,1.49c-.61-5.14-1.19-10.27-1.57-15.41-.35-4.79-.12-9.62.08-14.38.5-12.65,1.92-25.22,4.45-37.64,2.53-12.42,5.48-23.42,7.21-35.38,1.84-12.8,2.53-25.65,3.03-38.53.5-12.88,1.61-26.18,3.99-39.06.38-2.03-3.18-3.1-3.6-.8-4.52,24.23-3.34,48.92-6.44,73.3-1.53,12.19-4.37,23.96-6.98,35.92-2.61,11.96-4.37,25.07-5.06,37.76-.31,5.83-.61,11.73-.27,17.56.35,5.83,1,11.19,1.65,16.75.08.58.61,1.3,1.19,1.49,3.99,1.42,8.13,2.03,12.34,1.57,4.45-.5,8.63-2.15,12.92-3.37,7.51-2.18,14.87-5.17,21.43-9.43,13-8.51,21.85-23.08,23.69-38.53,1-8.32-.08-17.29-2.26-25.34-1.8-6.63-4.98-12.27-8.89-17.86-4.95-7.05-10.54-13.57-15.87-20.32-5.33-6.75-9.81-14.18-13.46-22-4.33-9.35-7.82-19.32-9.62-29.52-.77-4.33-1.23-8.78-1.04-13.19.19-4.91,1.38-9.7,2.65-14.41.54-1.99-2.88-3.8-3.41-1.65h-.04Z"/>
    <path class="cls-1" d="m100.8,177.51c7.97,13.65,15.14,27.79,21.54,42.21,6.4,14.41,9.62,28.06,7.71,43.13-.42,3.49-1.11,6.94-2.57,10.16-1.8,3.83-4.41,7.28-7.09,10.54-1.34,1.65,1.61,4.06,2.99,2.42,4.41-5.33,8.13-10.92,9.55-17.75,1.53-7.36,1.65-15.1.8-22.58-1.84-15.83-9.51-30.63-16.52-44.74-4.1-8.28-8.47-16.41-13.11-24.38-1.07-1.84-4.52-1.19-3.26.96l-.04.04Z"/>
    <path class="cls-1" d="m116.67,226.05c3.18,12.73,6.67,26.45,2.84,39.37-1.96,6.63-4.56,13.3-8.39,19.09-3.83,5.79-8.63,10.54-14.15,14.64-1.8,1.34.65,4.22,2.34,2.99,5.71-4.22,10.85-9.28,14.8-15.22,3.95-5.94,6.78-12.92,8.82-19.86,4.02-13.57.65-27.72-2.68-41.13-.5-2.03-4.14-2.26-3.56.08v.04Z"/>
    <path class="cls-1" d="m113.6,214.05c.42,1.61.84,3.26,1.23,4.87.12.5.38.92.77,1.23.35.27.88.5,1.34.5.42,0,.88-.15,1.15-.54s.38-.81.27-1.26c-.38-1.65-.81-3.26-1.23-4.87-.11-.5-.35-.88-.77-1.23-.35-.27-.88-.5-1.34-.5-.42,0-.88.15-1.15.54-.27.38-.38.81-.27,1.26Z"/>
    <path class="cls-1" d="m112.41,249.28c-1.46,8.09-3.07,16.25-5.79,24-2.72,7.74-7.09,13.99-13.15,19.17-1.69,1.46.77,4.33,2.34,2.99,6.36-5.44,11.19-12.15,14.07-20.05,2.88-7.9,4.6-16.83,6.13-25.34.35-2.03-3.18-3.1-3.6-.81v.04Z"/>
    <path class="cls-1" d="m89.18,295.82c-1.34.92-2.72,1.76-4.1,2.57-.38.23-.61.69-.65,1.11,0,.42.15.96.42,1.3.61.73,1.65,1.11,2.53.61,1.42-.81,2.8-1.69,4.1-2.57.81-.54.81-1.69.23-2.42-.57-.73-1.73-1.19-2.53-.61Z"/>
    <path class="cls-1" d="m115.9,288.61c-1.46,1.53-2.99,3.03-4.52,4.52-.31.27-.35.88-.27,1.26.08.46.38.96.77,1.23.38.27.84.5,1.34.5l.42-.08c.31-.08.54-.23.73-.46,1.53-1.46,3.03-2.99,4.52-4.52.31-.31.35-.84.27-1.27-.08-.46-.38-.96-.77-1.23-.38-.27-.84-.5-1.34-.5s-.84.19-1.15.54Z"/>
    <path class="cls-1" d="m408.33,315.18c9.77-1.96,19.47-4.33,29.21-6.52,9.74-2.18,20.09-4.14,30.06-6.59,9.97-2.45,20.09-4.33,30.09-6.67,10.01-2.34,19.78-4.64,29.67-6.9,5.52-1.27,11.08-2.57,16.6-3.91,2.84-.69,5.67-1.38,8.51-2.07,1.65-.38,4.49-.5,5.71-1.69l-2.68-.54.15.15c.65.65,1.46,1.11,2.42.77,5.87-2.22,11.96-4.37,18.25-5.06,5.75-.61,11.58-1.73,17.21-3.07,4.75-1.11,9.16-3.11,13.68-4.91,7.13-2.84,14.22-5.64,21.39-8.4l-2.68-1.15c1.5,2.68,3.03,5.9,2.03,9.01-.42,1.27-1.42,2.91-2.42,3.37-2.38,1.11-5.48,1.5-8.01,2.18-5.94,1.61-11.85,3.64-17.98,4.33-2.22.27.27,2.95,1.34,3.14,6.71,1.23,12.84,6.75,17.1,11.73,2.68,3.18,5.41,6.63,6.56,10.7,1.07,3.72,1.95,7.51,2.49,11.39,2.07,14.45-.38,29.06-7.44,41.86-3.8,6.9-8.74,12.96-14.11,18.75-5.98,6.44-12.15,12.69-18.55,18.67-11.16,10.47-23.12,20.05-36.07,28.18-12.96,8.13-27.26,13.88-41.75,18.25-15.53,4.68-31.86,8.16-48.04,9.66-32.05,2.91-61.99-11.31-85.53-32.2-23.54-20.89-39.83-45.7-52.21-73.26-1.69-3.8-3.3-7.59-4.83-11.46l-.77,1.42c30.32-5.98,60.49-12.54,90.66-19.09,2.07-.46-.12-3.45-1.73-3.11-30.17,6.59-60.38,13.15-90.66,19.09-.65.11-1,.8-.77,1.42,11.81,29.75,28.48,57.7,51.41,80.24,22.92,22.54,52.48,39.98,85.37,40.48,8.28.12,16.48-.96,24.65-2.3,8.7-1.42,17.33-3.18,25.84-5.4,15.07-3.95,29.71-9.35,43.47-16.6,13.76-7.24,27.1-17.67,39.02-28.37,6.71-5.98,13.11-12.31,19.32-18.78,6.21-6.48,11.96-12.73,16.56-20.2,7.78-12.77,11.39-27.49,10.01-42.4-.69-7.59-1.95-16.1-6.29-22.46-4.33-6.36-9.16-11.62-15.49-15.45-2.84-1.73-5.9-3.18-9.16-3.76l1.34,3.14c6.94-.81,13.65-3.14,20.36-4.98,2.07-.58,4.87-.84,6.71-1.99,5.48-3.57,3.03-11.12.54-15.56-.54-.92-1.65-1.57-2.68-1.15-7.13,2.76-14.26,5.56-21.39,8.4-4.64,1.84-9.12,3.83-14.03,4.91-5.71,1.26-11.5,2.15-17.25,2.95-6.13.88-12.04,2.99-17.83,5.18l2.41.77-.15-.15c-.65-.65-1.84-1.38-2.68-.54-.23.23-1.49.27-1.96.38-1.11.27-2.22.54-3.34.81-2.57.61-5.14,1.23-7.71,1.84-4.98,1.19-9.97,2.38-14.95,3.53-9.7,2.22-19.36,4.49-29.02,6.75-19.59,4.6-39.26,8.7-58.92,13.03-10.89,2.42-21.77,5.1-32.7,7.28-2.07.42.11,3.45,1.73,3.11l-.12-.15Z"/>
    <path class="cls-1" d="m406.26,314.29c9.39,12,20.36,22.04,34,29.06,12.61,6.48,26.11,9.24,40.06,5.83,8.78-2.15,16.6-6.48,23.88-11.73,1.57-1.15-1.07-3.83-2.42-2.88-11.54,8.32-25.03,14.18-39.52,12.88-14.49-1.3-27.37-9.09-38.07-17.86-5.9-4.87-10.85-10.62-15.57-16.64-1.3-1.65-3.95-.65-2.38,1.34Z"/>
    <path class="cls-1" d="m450.15,304.52c3.3,4.6,9.05,8.17,14.22,10.2,5.18,2.03,11.46,2.65,17.14,1.3,4.71-1.11,9.93-2.99,13.19-6.86,1.65-1.95,3.03-4.6,2.61-7.24-.42-2.65-1.96-5.18-3.14-7.44-.88-1.61-4.1-1.65-2.95.54,1,1.88,2.45,4.1,2.72,6.29.35,2.42-1.57,5.14-3.3,6.59-3.26,2.8-7.51,4.26-11.61,5.18-4.87,1.07-10.12.5-14.72-1.34-4.29-1.73-9.05-4.75-11.77-8.55-1.23-1.72-3.83-.73-2.38,1.34Z"/>
    <path class="cls-1" d="m595.75,281.44c1.8-.27,3.64-.46,5.41-.8.88-.19,1-1.15.61-1.84-.46-.77-1.42-1.46-2.34-1.27-1.8.35-3.6.54-5.41.81-.88.11-1,1.19-.61,1.84.46.8,1.38,1.42,2.34,1.26Z"/>
    <path class="cls-1" d="m586.01,282.78c1.04-.08,2.07-.19,3.11-.42.34-.08.69-.31.8-.65s0-.84-.19-1.15c-.27-.42-.61-.8-1.07-1.04-.38-.19-.84-.35-1.27-.27-1.03.19-2.07.31-3.1.42-.35,0-.69.34-.8.65-.12.38,0,.84.19,1.15.27.42.61.81,1.07,1.04l.42.19c.27.08.54.11.84.08Z"/>
    <path class="cls-1" d="m555.04,423.51c10.96-12,21.58-24.42,30.71-37.88,5.83-8.59,11.46-17.94,14.11-28.06,1.49-5.71,1.57-11.77,1.96-17.6.38-5.56.8-11.15.5-16.71-.54-10.54-4.37-21.66-11.35-29.67-8.78-10.04-21.7-14.3-34.65-15.41-2.34-.19-.73,2.99.92,3.14,11,.96,22.43,4.18,30.25,12.42,7.05,7.44,10.81,18.13,11.39,28.29.27,4.98-.08,10.04-.38,15.03-.34,5.87-.38,12-1.76,17.75-2.26,9.58-7.4,18.4-12.77,26.53-9.35,14.22-20.51,27.22-31.97,39.79-1.19,1.3,1.76,3.72,2.99,2.42l.08-.04Z"/>
    <path class="cls-1" d="m515.74,325.95c.8-1.15,1.57-2.3,2.34-3.49.73-1.11,1.61-2.22,2.03-3.49.31-.84-.54-1.84-1.27-2.18-.69-.35-1.76-.5-2.07.42-.11.31-.23.58-.38.84l.15-.31c-.54.96-1.23,1.88-1.84,2.84-.65,1-1.34,1.99-1.99,2.99-.5.77,0,1.73.65,2.22.54.42,1.8.96,2.3.19l.08-.04Z"/>
    <path class="cls-1" d="m527.51,302.49c.73-1.3,1.04-2.8,1.42-4.22.38-1.42.8-2.95,1.23-4.45.65-2.34,1.3-4.64,1.99-6.98.46-1.61-2.76-3.6-3.3-1.8-.65,2.22-1.3,4.49-1.92,6.71-.38,1.38-.77,2.76-1.15,4.14-.19.77-.42,1.49-.61,2.26-.15.61-.31,1.3-.61,1.88-.46.8,0,1.69.65,2.22.5.38,1.88,1,2.3.19v.04Z"/>
    <path class="cls-1" d="m477.45,333.35c3.07-.27,6.06-.96,8.89-2.15.35-.15.5-.57.5-.92,0-.42-.23-.88-.5-1.19-.61-.65-1.53-1.15-2.41-.77-.31.15-.65.27-1,.38-.04,0-.46.15-.27.08-.19.08-.35.12-.54.19-.65.19-1.3.38-1.99.54-1.46.35-2.95.58-4.45.69-.92.08-.96,1.23-.61,1.84.5.84,1.38,1.38,2.34,1.27l.04.04Z"/>
    <path class="cls-1" d="m417.37,311.84c5.87,6.06,13.07,10.39,20.78,13.69,9.62,4.06,19.93,6.82,30.36,7.71,2.34.19.73-2.99-.92-3.14-9.66-.84-19.24-3.3-28.22-7.02-7.21-2.95-14.14-6.94-19.59-12.54-1.42-1.49-4.14-.5-2.38,1.34l-.04-.04Z"/>
    <path class="cls-1" d="m231.87,306.32c-.08,5.48-3.37,10.43-8.47,12.54-5.1,2.11-10.89.77-14.34-3.37-3.45-4.14-3.76-10.27-1.03-14.87,2.72-4.6,8.09-7.36,13.49-6.55,6.13.88,10.31,6.25,10.39,12.3,0,1.69,3.45,3.18,3.41,1.04-.08-6.82-4.37-12.92-10.66-15.45-6.29-2.53-13.72-.92-18.17,4.29-4.45,5.21-4.87,12.69-1.42,18.4,3.45,5.71,10.27,9.24,17.06,8.2,7.63-1.15,13.11-7.86,13.23-15.45,0-1.69-3.41-3.18-3.41-1.04l-.08-.04Z"/>
    <path class="cls-1" d="m225.73,303.98c.08,1.07.15,2.26-.04,3.22-.11.5-.27,1.03-.5,1.49.11-.23-.08.15-.12.15-.04.08-.11.15-.15.23-.15.19-.31.38-.46.57-.61.73-1.11,1.07-1.99,1.61-.84.5-1.73.96-2.57,1.38-.84.42-.46,1.61,0,2.11.58.65,1.57,1.19,2.42.77,1.88-.92,3.83-1.96,5.21-3.57,1.69-1.99,1.76-4.49,1.61-6.98-.04-.92-.84-1.8-1.72-2.03-.73-.19-1.76,0-1.69,1v.04Z"/>
    <path class="cls-1" d="m29.11,209.26c-.08,5.48-3.41,10.47-8.51,12.54-5.1,2.07-10.89.8-14.38-3.34-3.49-4.14-3.72-10.31-1-14.91,2.72-4.6,8.09-7.36,13.49-6.59,6.17.84,10.27,6.25,10.39,12.31,0,1.61,3.41,3.18,3.41,1.07-.08-6.82-4.45-12.92-10.73-15.45-6.29-2.53-13.65-.88-18.09,4.26-4.45,5.14-4.83,12.65-1.42,18.36,3.41,5.71,10.27,9.24,17.02,8.24,7.59-1.15,13.07-7.82,13.19-15.41,0-1.61-3.37-3.18-3.41-1.07h.04Z"/>
    <path class="cls-1" d="m22.94,206.92c.08,1.07.15,2.26-.04,3.22-.11.5-.27,1.03-.5,1.49.12-.23-.08.15-.11.15-.04.08-.12.15-.15.23-.15.19-.31.38-.46.57-.61.73-1.11,1.07-1.99,1.61-.84.5-1.73.96-2.57,1.38-.84.42-.46,1.61,0,2.11.57.65,1.57,1.19,2.42.77,1.88-.92,3.83-1.96,5.21-3.57,1.69-1.99,1.76-4.49,1.61-6.98-.04-.92-.84-1.8-1.73-2.03-.73-.19-1.76,0-1.69,1v.04Z"/>
    <path class="cls-1" d="m166.62,83.36c-.08,5.41-3.18,10.31-8.32,12.19-5.14,1.88-10.66.38-13.99-3.64-3.34-4.03-3.99-10.16-1.15-14.8,2.84-4.64,8.16-6.86,13.34-5.87,6.06,1.15,10.08,6.59,10.16,12.61,0,2.42,3.8,2.11,3.76-.35-.08-6.75-4.49-13-10.85-15.26-6.36-2.26-13.84-.38-18.29,4.91-4.45,5.29-4.91,12.96-1.46,18.9,3.45,5.94,10.5,9.09,17.14,7.78,7.59-1.46,13.3-8.09,13.42-15.87,0-1.04-.54-1.99-1.61-2.19-.92-.15-2.11.54-2.15,1.53v.04Z"/>
    <path class="cls-1" d="m160.64,80.79c.08,1.07.15,2.26-.04,3.22-.12.5-.27,1.04-.5,1.5.12-.23-.08.15-.12.15-.04.08-.11.15-.15.23-.15.19-.31.38-.46.58-.61.73-1.11,1.07-1.99,1.61-.84.5-1.73.96-2.57,1.38-.84.42-.46,1.61,0,2.11.57.65,1.57,1.19,2.41.77,1.88-.92,3.83-1.96,5.21-3.57,1.69-1.99,1.76-4.49,1.61-6.98-.04-.92-.84-1.8-1.72-2.03-.73-.19-1.76,0-1.69,1v.04Z"/>
    <path class="cls-1" d="m464.22,171.69c-.08,5.52-3.45,10.47-8.51,12.57-5.06,2.11-10.93.84-14.38-3.33-3.45-4.18-3.72-10.35-1-14.95,2.72-4.6,8.09-7.36,13.53-6.63,6.17.84,10.27,6.25,10.35,12.34,0,1.57,3.41,3.18,3.37,1.11-.08-6.82-4.45-12.88-10.73-15.45-6.29-2.57-13.65-.92-18.06,4.22-4.41,5.14-4.79,12.61-1.38,18.36s10.31,9.28,17.02,8.24c7.59-1.15,13.03-7.78,13.15-15.37,0-1.57-3.34-3.18-3.37-1.11Z"/>
    <path class="cls-1" d="m458.05,169.35c.08,1.07.15,2.26-.04,3.22-.11.5-.27,1.04-.5,1.5.11-.23-.08.15-.12.15-.04.08-.11.15-.15.23-.15.19-.31.38-.46.57-.61.73-1.11,1.07-1.99,1.61-.84.5-1.73.96-2.57,1.38-.84.42-.46,1.61,0,2.11.58.65,1.57,1.19,2.42.77,1.88-.92,3.83-1.96,5.21-3.57,1.69-1.99,1.76-4.49,1.61-6.98-.04-.92-.84-1.8-1.73-2.03-.73-.19-1.76,0-1.69,1v.04Z"/>
    <path class="cls-1" d="m159.11,17.16c-.08,5.48-3.41,10.47-8.51,12.54s-10.89.81-14.38-3.34c-3.49-4.14-3.72-10.31-1-14.91,2.72-4.6,8.09-7.36,13.49-6.59,6.17.84,10.27,6.25,10.39,12.31,0,1.61,3.41,3.18,3.41,1.07-.08-6.82-4.45-12.92-10.73-15.45-6.29-2.53-13.65-.88-18.09,4.26-4.45,5.14-4.83,12.65-1.42,18.36,3.41,5.71,10.27,9.24,17.02,8.24,7.59-1.15,13.07-7.82,13.19-15.41,0-1.61-3.37-3.18-3.41-1.07h.04Z"/>
    <path class="cls-1" d="m152.94,14.86c.08,1.07.15,2.26-.04,3.22-.12.5-.27,1.04-.5,1.5.11-.23-.08.15-.12.15-.04.08-.12.15-.15.23-.15.19-.31.38-.46.58-.61.73-1.11,1.07-1.99,1.61-.84.5-1.72.96-2.57,1.38-.84.42-.46,1.61,0,2.11.57.65,1.57,1.19,2.42.77,1.88-.92,3.83-1.96,5.21-3.57,1.69-1.99,1.76-4.49,1.61-6.98-.04-.92-.84-1.8-1.72-2.03-.73-.19-1.76,0-1.69,1v.04Z"/>
    <path class="cls-1" d="m452.91,249.43c-1.46,4.22-5.29,7.17-9.74,7.47-4.14.27-7.97-2.18-9.39-6.06-1.53-4.18-.19-8.89,3.07-11.85,3.26-2.95,8.09-3.64,11.88-1.53,4.26,2.34,5.6,7.55,4.18,12-.46,1.49,2.72,3.53,3.3,1.84,1.73-5.4-.27-11.27-4.6-14.8-4.33-3.53-10.66-4.37-15.57-1.46-4.91,2.91-7.09,8.55-5.9,13.95,1.19,5.41,6.13,9.93,11.73,10.89,6.21,1.04,12.27-2.64,14.34-8.55.5-1.46-2.68-3.53-3.3-1.84v-.08Z"/>
    <path class="cls-1" d="m448.73,246.02c-.23.84-.46,1.73-.88,2.53.08-.19,0-.04,0,.04-.04.08-.11.15-.15.27-.11.19-.27.35-.42.5-.08.08-.11.12-.19.19-.04,0-.08.08-.12.11-.08.08-.04.04.08-.08-.08.12-.35.27-.5.35-.31.19-.65.35-1.04.5-.38.15.31-.08-.08,0-.08,0-.19.08-.27.08-.19.08-.38.12-.61.15-.8.19-1.61.31-2.45.42-.92.11-1,1.23-.61,1.88.46.8,1.38,1.42,2.34,1.26,1.76-.23,3.64-.54,5.17-1.53.84-.54,1.53-1.27,1.99-2.15.46-.88.77-1.84,1.03-2.8.23-.88-.46-1.84-1.23-2.22-.65-.31-1.84-.5-2.07.46v.04Z"/>
    <path class="cls-1" d="m214.04,16.39c-1.42,4.06-5.14,7.09-9.51,7.28-4.37.19-8.05-2.26-9.55-6.21-1.49-3.95-.23-8.74,2.99-11.54,3.22-2.8,7.94-3.41,11.73-1.34,4.18,2.3,5.71,7.44,4.33,11.85-.57,1.8,2.72,3.72,3.37,1.73,1.72-5.41-.08-11.39-4.49-14.99-4.41-3.6-10.77-4.26-15.72-1.3-4.95,2.95-7.24,8.7-6.06,14.15,1.19,5.44,5.98,10.01,11.62,10.89,6.36.96,12.54-2.65,14.64-8.74.61-1.8-2.68-3.68-3.37-1.73v-.04Z"/>
    <path class="cls-1" d="m209.94,12.94c-.23.84-.46,1.73-.88,2.53.08-.19,0-.04,0,.04-.04.08-.11.15-.15.27-.11.19-.27.34-.42.5-.08.08-.12.11-.19.19-.04,0-.08.08-.12.11-.08.08-.04.04.08-.08-.08.11-.35.27-.5.35-.31.19-.65.34-1.04.5-.38.15.31-.08-.08,0-.08,0-.19.08-.27.08-.19.08-.38.11-.61.15-.81.19-1.61.31-2.45.42-.92.11-1,1.23-.61,1.88.46.81,1.38,1.42,2.34,1.27,1.76-.23,3.64-.54,5.18-1.53.84-.54,1.53-1.27,1.99-2.15.46-.88.77-1.84,1.03-2.8.23-.88-.46-1.84-1.23-2.22-.65-.31-1.84-.5-2.07.46v.04Z"/>
  </g>
</svg>
